<svg width="32" height="37" viewBox="0 0 32 37" fill="none" xmlns="http://www.w3.org/2000/svg">
<path d="M19.9686 18.6217L10.7821 9.60182L19.9511 0.579102H10.7588L1.58826 9.60612L6.18881 14.134L10.7806 18.6217L15.3739 23.1337L19.9686 18.6217Z" fill="white"/>
<path d="M26.1235 14.1523L21.5463 9.61867L16.937 5.10659L12.4151 9.61867L21.5288 18.6356L12.3583 27.6971H21.5507L26.1294 23.2023L30.7241 18.6758L26.1235 14.1523Z" fill="white"/>
<path d="M1.91358 33.5674C1.79538 33.5637 1.67821 33.5903 1.57358 33.6447C1.46894 33.699 1.38042 33.7793 1.31668 33.8775C1.15896 34.1337 1.08382 34.431 1.10121 34.7302C1.10121 35.4844 1.39238 35.861 1.97473 35.8601C2.14766 35.8602 2.31972 35.836 2.48574 35.7883C2.65426 35.7386 2.81998 35.6801 2.98219 35.6131V36.5075C2.62722 36.657 2.24421 36.7309 1.85826 36.7243C1.25942 36.7243 0.799846 36.553 0.479555 36.2103C0.16072 35.8687 0.000572922 35.372 0.000572922 34.7245C-0.00762048 34.3554 0.0721668 33.9896 0.233513 33.6564C0.378866 33.3591 0.611751 33.112 0.901756 32.9472C1.2136 32.7782 1.56507 32.693 1.92086 32.7003C2.34674 32.6997 2.76726 32.794 3.15107 32.9759L2.82205 33.8086C2.68021 33.7427 2.53434 33.6857 2.38529 33.6377C2.23235 33.5897 2.07263 33.5659 1.91213 33.5674" fill="white"/>
<path d="M6.3513 35.5357C6.35542 35.7647 6.29002 35.9897 6.16349 36.1818C6.03046 36.3767 5.8428 36.5294 5.62337 36.621C5.36168 36.7308 5.07926 36.7841 4.79498 36.7775C4.5719 36.7816 4.34898 36.7633 4.12965 36.723C3.93637 36.6811 3.74874 36.617 3.57059 36.532V35.5889C3.77367 35.6921 3.98747 35.7735 4.20826 35.8315C4.40649 35.8862 4.61101 35.9156 4.81682 35.919C4.93912 35.9287 5.06141 35.9001 5.16623 35.8372C5.20107 35.8138 5.22953 35.7824 5.24908 35.7455C5.26864 35.7087 5.27868 35.6677 5.27833 35.6262C5.28015 35.5747 5.26424 35.5241 5.23319 35.4826C5.19321 35.4333 5.14373 35.3924 5.08761 35.362C4.9162 35.2685 4.73978 35.1841 4.55913 35.1094C4.35051 35.0232 4.15463 34.9098 3.97678 34.772C3.8519 34.6707 3.75228 34.5425 3.68561 34.3973C3.61919 34.2386 3.58697 34.068 3.59098 33.8963C3.58387 33.7344 3.61656 33.5732 3.68627 33.4265C3.75599 33.2798 3.86065 33.1518 3.99134 33.0536C4.31245 32.8353 4.6982 32.7287 5.08761 32.7507C5.52278 32.7575 5.95152 32.8554 6.34548 33.0378L6.02519 33.8518C5.72649 33.7018 5.39907 33.6157 5.06431 33.5991C4.95752 33.5904 4.85075 33.6161 4.76004 33.6723C4.73039 33.6922 4.70613 33.719 4.68939 33.7503C4.67264 33.7816 4.6639 33.8164 4.66395 33.8518C4.66603 33.8932 4.67824 33.9335 4.69953 33.9692C4.72083 34.005 4.75058 34.0351 4.78624 34.0571C4.99483 34.1859 5.21397 34.2973 5.44139 34.3901C5.71569 34.4936 5.96047 34.6611 6.15476 34.8782C6.29298 35.0697 6.36311 35.3009 6.35421 35.5357" fill="white"/>
<path d="M9.56038 35.5358C9.56414 35.7645 9.49932 35.9892 9.37403 36.1818C9.2408 36.3772 9.05255 36.5299 8.83245 36.6211C8.57128 36.7308 8.28932 36.7842 8.00552 36.7776C7.78196 36.7816 7.55856 36.7633 7.33873 36.723C7.14552 36.6809 6.95791 36.6168 6.77967 36.5321V35.5889C6.98325 35.6922 7.19754 35.7735 7.4188 35.8315C7.61653 35.8862 7.82056 35.9156 8.0259 35.9191C8.14865 35.9286 8.27134 35.9 8.37676 35.8372C8.4116 35.8139 8.44006 35.7824 8.45962 35.7456C8.47917 35.7088 8.48922 35.6678 8.48886 35.6262C8.48992 35.5748 8.47408 35.5245 8.44373 35.4827C8.40304 35.4341 8.3537 35.3932 8.29814 35.3621C8.12673 35.2685 7.95031 35.1842 7.76966 35.1094C7.56114 35.0231 7.36528 34.9096 7.18732 34.772C7.0619 34.6713 6.96218 34.543 6.89614 34.3973C6.82902 34.2388 6.79676 34.068 6.80151 33.8963C6.79423 33.7346 6.8267 33.5735 6.89616 33.4267C6.96561 33.28 7.07 33.152 7.20042 33.0536C7.52203 32.8352 7.90827 32.7286 8.29814 32.7507C8.73289 32.7572 9.16122 32.8551 9.55456 33.0378L9.22844 33.8518C8.92924 33.7018 8.60133 33.6157 8.26611 33.5991C8.15934 33.5906 8.05264 33.6163 7.96184 33.6724C7.93255 33.6925 7.90864 33.7194 7.89216 33.7506C7.87568 33.7819 7.86712 33.8166 7.86721 33.8518C7.86936 33.893 7.88145 33.9332 7.90246 33.9689C7.92348 34.0046 7.95281 34.0348 7.98804 34.0571C8.19682 34.1856 8.41593 34.297 8.64318 34.3902C8.9179 34.4928 9.16286 34.6604 9.35656 34.8783C9.49478 35.0697 9.56491 35.3009 9.55601 35.5358" fill="white"/>
<path d="M14.9904 34.6844C14.9904 35.3381 14.8085 35.8415 14.4445 36.1947C14.0805 36.5478 13.5676 36.7244 12.9056 36.7244H11.6216V32.8095H12.9959C13.6326 32.8095 14.1242 32.9703 14.4707 33.2919C14.8187 33.6135 14.9904 34.0772 14.9904 34.6844ZM13.8782 34.7217C13.8782 34.3628 13.8068 34.0958 13.6627 33.9235C13.5809 33.8334 13.4791 33.763 13.3652 33.7179C13.2513 33.6729 13.1284 33.6543 13.0061 33.6637H12.6945V35.8559H12.9333C13.2594 35.8559 13.4982 35.764 13.6496 35.5774C13.801 35.3907 13.8782 35.105 13.8782 34.716" fill="white"/>
<path d="M18.0563 36.7244H15.6993V32.8095H18.0563V33.658H16.7723V34.2738H17.9617V35.1237H16.7723V35.8616H18.0563V36.7244Z" fill="white"/>
<path d="M21.3499 35.5357C21.354 35.7647 21.2886 35.9897 21.162 36.1817C21.029 36.3767 20.8414 36.5293 20.6219 36.621C20.3602 36.7306 20.0778 36.7839 19.7935 36.7775C19.5704 36.7816 19.3475 36.7633 19.1282 36.7229C18.9349 36.681 18.7473 36.6169 18.5691 36.532V35.5888C18.7721 35.6923 18.9859 35.7737 19.2068 35.8314C19.405 35.8861 19.6096 35.9155 19.8154 35.919C19.9381 35.9282 20.0607 35.8996 20.1662 35.8372C20.2006 35.8134 20.2287 35.7819 20.2479 35.7451C20.2672 35.7083 20.2771 35.6675 20.2769 35.6261C20.2787 35.5746 20.2628 35.524 20.2317 35.4826C20.1918 35.4333 20.1423 35.3923 20.0862 35.362C19.9147 35.2684 19.7383 35.1841 19.5577 35.1093C19.3491 35.0232 19.1532 34.9097 18.9753 34.772C18.8504 34.6707 18.7508 34.5425 18.6842 34.3973C18.6177 34.2385 18.5855 34.0679 18.5895 33.8962C18.5822 33.7345 18.6147 33.5734 18.6842 33.4267C18.7536 33.2799 18.858 33.1519 18.9884 33.0535C19.3102 32.8354 19.6963 32.7289 20.0862 32.7506C20.5213 32.7575 20.9501 32.8553 21.344 33.0378L21.0223 33.8517C20.7236 33.7018 20.3962 33.6157 20.0614 33.5991C19.9546 33.5904 19.8478 33.6161 19.7571 33.6723C19.7275 33.6922 19.7032 33.719 19.6865 33.7502C19.6697 33.7815 19.661 33.8164 19.661 33.8517C19.6631 33.8931 19.6753 33.9334 19.6966 33.9692C19.7179 34.0049 19.7477 34.0351 19.7833 34.057C19.9919 34.1859 20.2111 34.2973 20.4385 34.3901C20.7128 34.4935 20.9576 34.661 21.1519 34.8782C21.2901 35.0697 21.3602 35.3008 21.3513 35.5357" fill="white"/>
<path d="M23.0389 32.8095H21.9615V36.7244H23.0389V32.8095Z" fill="white"/>
<path d="M25.4917 34.4321H27.2053V36.5424C26.7106 36.7044 26.192 36.784 25.6708 36.7779C25.0594 36.7779 24.5867 36.6032 24.2528 36.2539C23.9189 35.9045 23.752 35.4054 23.752 34.7565C23.752 34.1249 23.9344 33.6329 24.2994 33.2808C24.6663 32.9305 25.1729 32.7539 25.8368 32.7539C26.0744 32.7527 26.3115 32.7758 26.5443 32.8228C26.744 32.8627 26.9391 32.9223 27.1267 33.0008L26.7875 33.8306C26.4942 33.6895 26.1717 33.6178 25.8455 33.621C25.7089 33.613 25.5722 33.6361 25.446 33.6883C25.3198 33.7406 25.2075 33.8207 25.1176 33.9225C24.9312 34.1705 24.8404 34.4758 24.8614 34.7838C24.8407 35.0801 24.9223 35.3745 25.0928 35.6193C25.1736 35.7159 25.2764 35.7922 25.3928 35.8421C25.5092 35.892 25.6359 35.914 25.7625 35.9065C25.9094 35.9072 26.0559 35.8918 26.1993 35.8605V35.2475H25.4903L25.4917 34.4321Z" fill="white"/>
<path d="M31.7932 36.7244H30.3868L28.9309 33.9666H28.9062C28.9411 34.4002 28.9586 34.7313 28.9586 34.96V36.7244H28.0079V32.8095H29.4085L30.8527 35.53H30.8701C30.8439 35.1366 30.8308 34.8198 30.8308 34.5796V32.8095H31.7932V36.7244Z" fill="white"/>
</svg>
