<svg width="13" height="12" viewBox="0 0 13 12" fill="none" xmlns="http://www.w3.org/2000/svg">
<path d="M12.8623 3.45659C12.9771 3.59439 13.02 3.75974 12.9914 3.95265L12.4464 6.95663C12.4273 7.11284 12.3532 7.24141 12.2241 7.34245C12.0951 7.44351 11.9493 7.49403 11.7867 7.49403H3.84144L3.68368 8.34836H11.2561C11.4378 8.34836 11.5954 8.41037 11.7293 8.53439C11.8632 8.65841 11.9301 8.81228 11.9301 8.99601C11.9301 9.17973 11.8632 9.3336 11.7293 9.45762C11.5954 9.58164 11.4378 9.64365 11.2561 9.64365H2.88055C2.67976 9.64365 2.50766 9.56556 2.36425 9.40946C2.23039 9.25325 2.17781 9.07409 2.20649 8.87206L2.56503 6.99803L2.02005 1.73419L0.47115 1.26568C0.289489 1.21056 0.158024 1.1049 0.0767544 0.94875C-0.00451496 0.792559 -0.0212469 0.627226 0.0265586 0.452685C0.0839252 0.278143 0.196268 0.151831 0.363587 0.0737463C0.530907 -0.00433801 0.700616 -0.0204142 0.872716 0.0255177L2.85186 0.631819C2.97616 0.668565 3.07894 0.737463 3.16021 0.838513C3.24148 0.939564 3.29168 1.05442 3.3108 1.18303L3.42553 2.23027L12.4034 3.19484C12.6042 3.22234 12.7572 3.30961 12.8623 3.45659ZM3.89883 10.0019C4.18566 10.0019 4.42947 10.0984 4.63025 10.2913C4.83104 10.4842 4.93143 10.7185 4.93143 10.9941C4.93143 11.2696 4.83104 11.5062 4.63025 11.7037C4.42947 11.9012 4.18566 12 3.89883 12C3.612 12 3.36819 11.9012 3.1674 11.7037C2.96662 11.5063 2.86623 11.2697 2.86623 10.9941C2.86623 10.7185 2.96662 10.4842 3.1674 10.2913C3.36816 10.0984 3.61197 10.0019 3.89883 10.0019ZM10.0227 10.0019C10.3095 10.0019 10.5534 10.0984 10.7541 10.2913C10.9548 10.4842 11.0553 10.7185 11.0553 10.9941C11.0553 11.2696 10.9549 11.5062 10.7541 11.7037C10.5534 11.9012 10.3095 12 10.0227 12C9.73586 12 9.492 11.9012 9.29129 11.7037C9.09051 11.5063 8.99005 11.2697 8.99005 10.9941C8.99005 10.7185 9.09046 10.4842 9.29129 10.2913C9.49205 10.0984 9.73586 10.0019 10.0227 10.0019Z" fill="#08A459"/>
</svg>
