<svg width="113" height="113" viewBox="0 0 113 113" fill="none" xmlns="http://www.w3.org/2000/svg">
<g opacity="0.2">
<path d="M72.1201 5.1945L73.0841 1.29862L72.3955 1.14122L71.4316 5.03709C71.2939 5.58802 70.9988 6.00122 70.5266 6.29636C70.0545 6.5915 69.5627 6.67021 69.0315 6.53247C68.5003 6.39474 68.0872 6.0996 67.8118 5.62737C67.5364 5.15515 67.4577 4.64357 67.5954 4.09263L68.5594 0.196761L67.8708 0L66.8872 3.89587C66.7101 4.60421 66.8085 5.2732 67.202 5.92251C67.5954 6.57183 68.1462 6.98503 68.8545 7.16211C69.5627 7.3392 70.2315 7.24082 70.8807 6.84729C71.5299 6.45377 71.9431 5.90284 72.1201 5.1945Z" fill="black"/>
<path d="M75.5656 2.18531L73.3367 8.40907L74.0034 8.64792L76.2323 2.42416L75.5656 2.18531Z" fill="black"/>
<path d="M75.13 11.1957L81.2089 4.3681L80.6384 4.11231L74.5595 10.9399L75.13 11.1957Z" fill="black"/>
<path d="M80.7368 10.8415C80.9335 11.5696 81.3466 12.1205 81.9761 12.4747C82.6057 12.8485 83.2942 12.9272 84.0221 12.7305C84.75 12.5337 85.3008 12.1205 85.6549 11.4909L87.6616 8.00818L87.0517 7.65401L85.0451 11.1367C84.7697 11.6286 84.3565 11.9434 83.8254 12.0811C83.2942 12.2189 82.7827 12.1598 82.3106 11.8844C81.8384 11.6089 81.5237 11.2154 81.386 10.6645C81.2483 10.1332 81.3269 9.62163 81.6024 9.12972L83.609 5.66672L82.9991 5.31255L80.9925 8.79523C80.6187 9.42487 80.54 10.1135 80.7368 10.8415Z" fill="black"/>
<path d="M85.95 14.8752L89.3141 13.8323L89.1567 17.3543L89.8452 17.8659L90.0026 13.6356L93.7207 12.514L93.0519 12.0024L90.0026 12.9272L90.1206 9.73968L89.4518 9.2281L89.3141 13.124L85.2812 14.3636L85.95 14.8752Z" fill="black"/>
<path d="M92.6584 20.5812L94.8421 18.5152L96.9274 20.6993L97.3995 20.2467L95.3339 18.043L96.9667 16.4886L99.5635 19.2236L100.055 18.771L96.9667 15.5245L92.1666 20.0697L92.6584 20.5812Z" fill="black"/>
<path d="M100.803 21.1322C100.921 21.1518 101.019 21.1125 101.118 21.0338C101.216 20.9551 101.255 20.8567 101.275 20.7583C101.295 20.6403 101.255 20.5419 101.177 20.4435C101.098 20.3451 101 20.3058 100.901 20.2861C100.803 20.2664 100.685 20.3058 100.587 20.3845C100.488 20.4632 100.449 20.5616 100.429 20.6599C100.409 20.778 100.449 20.8764 100.528 20.9748C100.587 21.0731 100.685 21.1125 100.803 21.1322Z" fill="black"/>
<path d="M99.4572 21.3994L95.9347 24.2396L96.3545 24.7604L99.877 21.9202L99.4572 21.3994Z" fill="black"/>
<path d="M101.059 23.4146L97.3799 26.0512L97.7733 26.5825L99.7996 25.1264C100.154 24.8706 100.528 24.7722 100.901 24.851C101.275 24.91 101.59 25.1067 101.806 25.4216L101.964 25.6577L102.495 25.2641L102.377 25.1067C102.259 24.9493 102.141 24.8116 101.983 24.6935C101.826 24.5755 101.708 24.4968 101.59 24.4574C101.472 24.3984 101.354 24.3787 101.236 24.3394C101.118 24.3 101.039 24.3 101 24.3C100.96 24.3 100.921 24.3 100.901 24.3L101.393 23.9458L101.059 23.4146Z" fill="black"/>
<path d="M101.57 27.4679C101.511 27.704 101.491 27.9598 101.55 28.1959C101.61 28.4517 101.669 28.6878 101.728 28.9239C101.787 29.16 101.826 29.3961 101.806 29.5929C101.787 29.7897 101.708 29.9471 101.55 30.0454C101.373 30.1635 101.157 30.1832 100.96 30.1045C100.744 30.0258 100.567 29.8684 100.39 29.5929C100.311 29.4748 100.272 29.3371 100.232 29.1994C100.193 29.0616 100.193 28.9436 100.193 28.8255C100.193 28.7075 100.213 28.6091 100.232 28.5107C100.252 28.4123 100.272 28.3336 100.291 28.3139C100.311 28.2746 100.311 28.2549 100.331 28.2352L99.6816 28.0778L99.6422 28.1762C99.6226 28.2352 99.6029 28.3336 99.5832 28.4517C99.5635 28.5697 99.5439 28.7075 99.5439 28.8452C99.5439 28.9829 99.5635 29.16 99.6226 29.3568C99.6816 29.5535 99.7603 29.7306 99.8586 29.9077C100.114 30.3406 100.449 30.6161 100.823 30.7341C101.196 30.8522 101.55 30.8128 101.885 30.6161C102.141 30.4586 102.298 30.2619 102.377 30.0061C102.455 29.77 102.455 29.5142 102.416 29.2584C102.357 29.0026 102.298 28.7665 102.239 28.5304C102.18 28.2943 102.141 28.0778 102.141 27.8614C102.141 27.6646 102.219 27.5072 102.377 27.4088C102.534 27.3105 102.691 27.3105 102.888 27.3695C103.085 27.4285 103.242 27.5663 103.38 27.7827C103.478 27.9598 103.537 28.1369 103.557 28.3139C103.577 28.5107 103.577 28.6288 103.557 28.7075C103.537 28.7665 103.518 28.8255 103.498 28.8649L104.147 29.0223L104.167 28.9239C104.187 28.8649 104.187 28.7862 104.206 28.6878C104.206 28.5894 104.226 28.4714 104.206 28.3533C104.187 28.2352 104.167 28.0778 104.128 27.9204C104.088 27.763 104.01 27.6056 103.911 27.4482C103.675 27.0744 103.38 26.8382 103.026 26.7202C102.652 26.6021 102.337 26.6415 102.042 26.8186C101.787 27.035 101.629 27.2318 101.57 27.4679Z" fill="black"/>
<path d="M102.691 32.2098C102.318 32.4066 102.082 32.6427 101.983 32.9575C101.885 33.2527 101.924 33.5872 102.101 33.9216C102.2 34.1381 102.337 34.3152 102.514 34.4332L103.065 34.1578L102.987 34.0987C102.947 34.0594 102.888 34.0003 102.829 33.9216C102.77 33.8429 102.711 33.7642 102.652 33.6659C102.455 33.3117 102.573 33.0165 103.006 32.8001L105.406 31.5802L105.859 32.4656L106.41 32.1901L105.957 31.3047L107.295 30.6161L107.019 30.0651L106.095 30.5373C105.819 30.6751 105.623 30.6357 105.505 30.4193L105.269 29.9471L104.718 30.2225L105.111 30.9899L102.691 32.2098Z" fill="black"/>
<path d="M104.56 39.549C104.875 40.4541 105.446 41.1231 106.272 41.556C107.098 41.9889 107.944 42.0479 108.81 41.7527C109.675 41.4576 110.305 40.887 110.698 40.0606C111.092 39.2145 111.131 38.3488 110.836 37.424L110.167 35.4564L103.892 37.5814L104.56 39.549ZM109.734 36.3418L110.187 37.6404C110.443 38.3685 110.403 39.0768 110.088 39.7261C109.774 40.3951 109.262 40.8476 108.574 41.0838C107.885 41.3199 107.197 41.2805 106.547 40.946C105.898 40.6115 105.446 40.0803 105.19 39.3523L104.737 38.0536L109.734 36.3418Z" fill="black"/>
<path d="M110.344 43.0979L105.946 44.1596L106.102 44.8099L110.501 43.7482L110.344 43.0979Z" fill="black"/>
<path d="M111.662 43.4252C111.761 43.4842 111.859 43.5039 111.977 43.4646C112.095 43.4449 112.174 43.3662 112.233 43.2678C112.292 43.1694 112.311 43.071 112.272 42.953C112.233 42.8349 112.174 42.7562 112.075 42.6972C111.977 42.6382 111.879 42.6185 111.761 42.6578C111.643 42.6775 111.564 42.7562 111.505 42.8546C111.446 42.953 111.426 43.0514 111.466 43.1694C111.505 43.2678 111.564 43.3662 111.662 43.4252Z" fill="black"/>
<path d="M110.954 45.7273L110.836 45.019L106.665 47.5966L106.783 48.2459L111.564 49.3084L111.446 48.6197L107.61 47.7736L110.954 45.7273Z" fill="black"/>
<path d="M109.243 51.2366L109.479 54.9161L109.813 54.9358C110.462 54.8964 110.993 54.6406 111.387 54.2077C111.78 53.7749 111.957 53.2436 111.918 52.614C111.879 52.0237 111.603 51.5121 111.131 51.1186C110.659 50.7251 110.069 50.5283 109.42 50.5676C108.77 50.607 108.22 50.8825 107.806 51.3547C107.393 51.8269 107.177 52.3778 107.236 52.9878C107.256 53.2239 107.295 53.4404 107.393 53.6371C107.492 53.8339 107.57 54.011 107.649 54.1487C107.747 54.2864 107.846 54.4045 107.964 54.5029C108.082 54.6013 108.161 54.68 108.2 54.7193C108.239 54.7587 108.279 54.7783 108.318 54.798L108.711 54.3455L108.515 54.1881C108.377 54.0897 108.239 53.9323 108.101 53.6962C107.964 53.46 107.885 53.2043 107.865 52.9288C107.846 52.5156 107.964 52.1417 108.239 51.8072C108.495 51.4727 108.829 51.276 109.243 51.2366ZM110.836 51.6302C111.131 51.9056 111.308 52.2401 111.328 52.6336C111.347 53.0272 111.249 53.3813 110.993 53.6765C110.738 53.9716 110.423 54.1684 110.01 54.2471L109.793 51.1776C110.187 51.217 110.541 51.3547 110.836 51.6302Z" fill="black"/>
<path d="M107.393 67.8236C107.865 67.5481 108.377 67.4694 108.928 67.6072L112.823 68.5713L113 67.8826L109.105 66.9185C108.397 66.7414 107.728 66.8398 107.079 67.2333C106.429 67.6269 106.016 68.1778 105.839 68.8861C105.662 69.5945 105.76 70.2635 106.154 70.9128C106.547 71.5621 107.079 71.9753 107.806 72.1524L111.702 73.1165L111.879 72.4278L107.983 71.4637C107.433 71.326 107.019 71.0308 106.724 70.5586C106.429 70.0864 106.351 69.5945 106.488 69.0632C106.606 68.5123 106.921 68.0991 107.393 67.8236Z" fill="black"/>
<path d="M104.588 73.362L104.349 74.0289L110.572 76.2582L110.811 75.5913L104.588 73.362Z" fill="black"/>
<path d="M101.806 75.1628L108.633 81.2427L108.869 80.6721L102.042 74.5922L101.806 75.1628Z" fill="black"/>
<path d="M102.16 80.7705C101.432 80.9673 100.882 81.3805 100.528 82.0101C100.154 82.6397 100.075 83.3284 100.272 84.0564C100.468 84.7844 100.882 85.3354 101.511 85.6895L104.993 87.6965L105.347 87.0865L101.865 85.0796C101.373 84.8041 101.059 84.3909 100.921 83.8597C100.783 83.3284 100.842 82.8168 101.118 82.3446C101.393 81.8724 101.806 81.5575 102.337 81.4198C102.869 81.2821 103.38 81.3608 103.872 81.6363L107.354 83.6432L107.708 83.0333L104.226 81.0263C103.557 80.6524 102.888 80.5737 102.16 80.7705Z" fill="black"/>
<path d="M98.6389 85.3157L98.1274 85.9847L99.1701 89.3493L95.629 89.1919L95.1175 89.8806L99.3471 90.038L100.468 93.7568L101 93.0878L100.055 90.038L103.242 90.1757L103.754 89.5067L99.8783 89.369L98.6389 85.3157Z" fill="black"/>
<path d="M92.4027 92.6746L94.488 94.8783L92.2846 96.9443L92.7568 97.4362L94.9405 95.3505L96.4946 97.0033L93.7601 99.6006L94.2126 100.073L97.4586 97.0033L92.9142 92.2023L92.4027 92.6746Z" fill="black"/>
<path d="M92.324 100.466C92.2059 100.447 92.1076 100.486 92.0092 100.565C91.9109 100.643 91.8715 100.742 91.8518 100.84C91.8322 100.939 91.8715 101.057 91.9502 101.155C92.0289 101.253 92.1273 101.293 92.2256 101.312C92.324 101.332 92.442 101.293 92.5404 101.214C92.6387 101.135 92.6781 101.037 92.6978 100.939C92.7174 100.84 92.6781 100.722 92.5994 100.624C92.5404 100.525 92.442 100.466 92.324 100.466Z" fill="black"/>
<path d="M88.7604 95.9502L88.2397 96.37L91.0794 99.8936L91.6002 99.4737L88.7604 95.9502Z" fill="black"/>
<path d="M86.3828 97.7904L87.8386 99.817C88.0944 100.171 88.1927 100.545 88.114 100.919C88.055 101.293 87.8583 101.608 87.5435 101.824L87.3074 101.981L87.7009 102.513L87.8583 102.395C88.0157 102.277 88.1534 102.158 88.2714 102.001C88.3895 101.863 88.4681 101.726 88.5075 101.608C88.5665 101.489 88.5862 101.371 88.6255 101.253C88.6452 101.135 88.6649 101.057 88.6649 101.017C88.6649 100.978 88.6649 100.939 88.6649 100.919L89.019 101.411L89.5501 101.017L86.914 97.3968L86.3828 97.7904Z" fill="black"/>
<path d="M85.5172 101.608C85.2812 101.549 85.0254 101.529 84.7893 101.588C84.5336 101.647 84.2975 101.706 84.0614 101.765C83.8254 101.824 83.5893 101.863 83.3926 101.844C83.1762 101.824 83.0385 101.745 82.9401 101.588C82.8221 101.411 82.8024 101.194 82.8811 100.998C82.9598 100.781 83.1172 100.604 83.3926 100.427C83.5106 100.348 83.6483 100.309 83.786 100.27C83.9237 100.23 84.0418 100.23 84.1598 100.23C84.2582 100.23 84.3762 100.25 84.4746 100.27C84.5729 100.289 84.6516 100.309 84.6713 100.329C84.691 100.348 84.7303 100.348 84.75 100.368L84.9074 99.7186L84.809 99.6793C84.75 99.6596 84.6516 99.6399 84.5336 99.6202C84.4156 99.6006 84.2779 99.5809 84.1401 99.5809C84.0024 99.5809 83.8254 99.6006 83.6287 99.6596C83.4319 99.7186 83.2549 99.7973 83.0778 99.8957C82.645 100.151 82.3696 100.486 82.2516 100.86C82.1335 101.234 82.1729 101.588 82.3696 101.922C82.527 102.178 82.7237 102.336 82.9598 102.414C83.1959 102.493 83.4516 102.493 83.7073 102.454C83.9631 102.395 84.1992 102.336 84.4352 102.277C84.6713 102.217 84.8877 102.178 85.1041 102.178C85.3008 102.178 85.4582 102.257 85.5566 102.414C85.6549 102.572 85.6549 102.729 85.5959 102.926C85.5369 103.123 85.3992 103.28 85.1828 103.418C85.0057 103.516 84.8287 103.575 84.6516 103.595C84.4746 103.614 84.3369 103.614 84.2582 103.595C84.1795 103.575 84.1401 103.555 84.1008 103.536L83.9434 104.185L84.0418 104.205C84.1008 104.224 84.1795 104.224 84.2778 104.244C84.3762 104.244 84.4942 104.264 84.6123 104.244C84.7303 104.224 84.8877 104.205 85.0451 104.165C85.2025 104.106 85.3598 104.047 85.5172 103.949C85.891 103.733 86.1271 103.418 86.2451 103.064C86.3632 102.69 86.3238 102.375 86.1468 102.08C85.9697 101.824 85.773 101.667 85.5172 101.608Z" fill="black"/>
<path d="M82.586 105.503L83.0581 105.267L82.7827 104.716L82.0155 105.11L80.7958 102.709C80.5991 102.336 80.363 102.099 80.0482 102.001C79.7531 101.903 79.4187 101.942 79.0843 102.119C78.8679 102.217 78.6908 102.355 78.5728 102.532L78.8482 103.083L78.9072 103.005C78.9465 102.965 79.0056 102.906 79.0843 102.847C79.1629 102.788 79.2416 102.729 79.34 102.67C79.6941 102.473 79.9892 102.591 80.2056 103.024L81.4253 105.425L80.54 105.877L80.8155 106.428L81.7007 105.976L82.3893 107.314L82.9401 107.038L82.468 106.113C82.3303 105.818 82.3696 105.621 82.586 105.503Z" fill="black"/>
<path d="M73.4382 104.598C72.5332 104.913 71.8644 105.484 71.4316 106.31C70.9988 107.137 70.9398 107.983 71.2348 108.848C71.5299 109.714 72.1004 110.344 72.9267 110.737C73.7726 111.131 74.6382 111.17 75.5628 110.875L77.5301 110.206L75.3858 103.949L73.4382 104.598ZM75.3661 110.226C74.6382 110.481 73.93 110.442 73.2808 110.127C72.6119 109.812 72.1595 109.301 71.9234 108.612C71.6873 107.924 71.7267 107.235 72.0611 106.586C72.3955 105.936 72.9267 105.484 73.6546 105.228L74.953 104.775L76.6645 109.773L75.3661 110.226Z" fill="black"/>
<path d="M68.8395 105.965L68.1893 106.122L69.2508 110.521L69.901 110.364L68.8395 105.965Z" fill="black"/>
<path d="M70.1529 111.564C70.0545 111.505 69.9561 111.485 69.8381 111.524C69.7201 111.544 69.6414 111.623 69.5823 111.721C69.5233 111.819 69.5037 111.918 69.543 112.036C69.5627 112.154 69.6414 112.233 69.7397 112.292C69.8381 112.351 69.9365 112.37 70.0545 112.331C70.1725 112.311 70.2512 112.233 70.3102 112.134C70.3692 112.036 70.3889 111.937 70.3496 111.819C70.3299 111.701 70.2512 111.623 70.1529 111.564Z" fill="black"/>
<path d="M64.7429 106.802L63.6805 111.583L64.3691 111.465L65.215 107.648L67.261 110.973L67.9692 110.855L65.3921 106.704L64.7429 106.802Z" fill="black"/>
<path d="M61.6542 107.845C61.1821 107.412 60.6313 107.215 60.0214 107.274C59.7853 107.294 59.5689 107.333 59.3722 107.432C59.1755 107.53 58.9984 107.609 58.8607 107.687C58.723 107.786 58.605 107.884 58.5066 108.002C58.4082 108.12 58.3296 108.199 58.2902 108.238C58.2509 108.278 58.2312 108.317 58.2115 108.356L58.664 108.75L58.8214 108.553C58.9197 108.415 59.0771 108.278 59.3132 108.14C59.5493 108.002 59.805 107.924 60.0804 107.904C60.4936 107.884 60.8673 108.002 61.2018 108.278C61.5362 108.553 61.7329 108.888 61.7723 109.301L58.0935 109.537L58.0738 109.872C58.1132 110.521 58.3689 111.052 58.8017 111.446C59.2345 111.839 59.7657 112.016 60.3952 111.977C60.9854 111.937 61.4969 111.662 61.8903 111.19C62.2838 110.718 62.4805 110.127 62.4412 109.478C62.4018 108.829 62.1461 108.258 61.6542 107.845ZM61.3592 110.855C61.0837 111.15 60.7493 111.328 60.3558 111.347C59.9624 111.367 59.6083 111.269 59.3132 111.013C59.0181 110.757 58.8214 110.442 58.7427 110.029L61.8116 109.812C61.792 110.226 61.6346 110.56 61.3592 110.855Z" fill="black"/>
<path d="M44.1062 105.858C43.398 105.68 42.7291 105.779 42.0799 106.172C41.4307 106.566 41.0176 107.097 40.8405 107.806L39.8569 111.701L40.5454 111.878L41.5291 107.983C41.6668 107.432 41.9619 107.018 42.434 106.723C42.9062 106.428 43.398 106.349 43.9291 106.487C44.4603 106.625 44.8734 106.92 45.1488 107.392C45.4243 107.865 45.503 108.376 45.3652 108.927L44.3816 112.823L45.0702 113L46.0538 109.104C46.2308 108.396 46.1325 107.727 45.739 107.077C45.3652 106.448 44.8144 106.035 44.1062 105.858Z" fill="black"/>
<path d="M38.9661 104.373L36.7378 110.597L37.4046 110.836L39.6329 104.612L38.9661 104.373Z" fill="black"/>
<path d="M37.8503 101.824L31.7517 108.632L32.3222 108.888L38.4011 102.08L37.8503 101.824Z" fill="black"/>
<path d="M32.2436 102.178C32.0468 101.45 31.6337 100.899 31.0042 100.545C30.3747 100.171 29.6861 100.092 28.9582 100.289C28.2303 100.486 27.6795 100.899 27.3254 101.529L25.3188 105.011L25.9286 105.366L27.9352 101.883C28.2107 101.391 28.6238 101.076 29.1549 100.939C29.6861 100.801 30.1976 100.86 30.6697 101.135C31.1419 101.411 31.4566 101.824 31.5944 102.355C31.7321 102.886 31.6534 103.398 31.378 103.89L29.3713 107.373L29.9812 107.727L31.9878 104.244C32.3419 103.595 32.4403 102.906 32.2436 102.178Z" fill="black"/>
<path d="M27.0303 98.1445L23.6466 99.1874L23.804 95.6653L23.1351 95.1341L22.9777 99.3644L19.2399 100.486L19.9088 101.017L22.958 100.073L22.84 103.26L23.5089 103.772L23.6466 99.8957L27.6992 98.6561L27.0303 98.1445Z" fill="black"/>
<path d="M20.3219 92.4188L18.1186 94.5044L16.0529 92.3007L15.5611 92.7533L17.6464 94.957L15.9939 96.5114L13.3971 93.7764L12.925 94.229L16.0136 97.4755L20.8137 92.9304L20.3219 92.4188Z" fill="black"/>
<path d="M12.1774 91.8678C12.0594 91.8482 11.961 91.8875 11.8626 91.9662C11.7643 92.0449 11.7249 92.1433 11.7053 92.2417C11.6856 92.3401 11.7249 92.4581 11.8036 92.5565C11.8823 92.6549 11.9807 92.6942 12.079 92.7139C12.1971 92.7336 12.2954 92.6942 12.3938 92.6155C12.4922 92.5368 12.5315 92.4384 12.5512 92.3401C12.5709 92.222 12.5315 92.1236 12.4528 92.0253C12.3741 91.9465 12.2758 91.8875 12.1774 91.8678Z" fill="black"/>
<path d="M16.6214 88.2394L13.0985 91.0796L13.5183 91.6005L17.0412 88.7603L16.6214 88.2394Z" fill="black"/>
<path d="M11.9217 89.5854L15.6005 86.9488L15.207 86.4176L13.1807 87.8539C12.8266 88.1097 12.4528 88.2081 12.079 88.1294C11.7053 88.0704 11.3905 87.8736 11.1741 87.5588L11.0167 87.3227L10.4855 87.7162L10.6036 87.8736C10.7216 88.031 10.8397 88.1687 10.997 88.2868C11.1347 88.4048 11.2725 88.4835 11.3905 88.5229C11.5085 88.5819 11.6266 88.6016 11.7446 88.641C11.8626 88.6606 11.9413 88.6803 11.9807 88.6803C12.02 88.6803 12.0594 88.6803 12.079 88.6803L11.5872 89.0345L11.9217 89.5854Z" fill="black"/>
<path d="M11.4102 85.5321C11.4692 85.296 11.4889 85.0402 11.4298 84.8041C11.3708 84.5483 11.3118 84.3122 11.2528 84.0761C11.1938 83.84 11.1544 83.6039 11.1741 83.4071C11.1938 83.1907 11.2725 83.0529 11.4298 82.9546C11.6069 82.8365 11.8233 82.8168 12.02 82.8955C12.2364 82.9742 12.4135 83.1316 12.5905 83.4071C12.6692 83.5252 12.7086 83.6629 12.7479 83.8006C12.7873 83.9384 12.7873 84.0564 12.7873 84.1745C12.7873 84.2729 12.7676 84.3909 12.7479 84.4893C12.7282 84.5877 12.7086 84.6664 12.6889 84.6861C12.6692 84.7254 12.6692 84.7451 12.6495 84.7648L13.2987 84.9222L13.3381 84.8238C13.3578 84.7648 13.3774 84.6664 13.3971 84.5483C13.4168 84.4303 13.4365 84.2925 13.4365 84.1548C13.4365 84.0171 13.4168 83.84 13.3578 83.6432C13.2987 83.4465 13.2201 83.2694 13.1217 83.0726C12.8659 82.6397 12.5315 82.3643 12.1577 82.2462C11.7839 82.1282 11.4298 82.1675 11.0954 82.3643C10.8397 82.5217 10.6823 82.7184 10.6036 82.9546C10.5249 83.1907 10.5249 83.4465 10.5642 83.7022C10.6233 83.958 10.6823 84.1942 10.7413 84.4303C10.8003 84.6664 10.8397 84.8828 10.8397 85.0993C10.8397 85.296 10.761 85.4534 10.6036 85.5518C10.4462 85.6502 10.2888 85.6502 10.0921 85.5912C9.89537 85.5321 9.73799 85.3944 9.60028 85.178C9.50191 85.0009 9.4429 84.8238 9.42322 84.6467C9.40355 84.4499 9.40355 84.3319 9.42322 84.2532C9.4429 84.1942 9.46257 84.1351 9.48224 84.0958L8.83304 83.9384L8.81337 84.0367C8.7937 84.0958 8.7937 84.1745 8.77402 84.2729C8.77402 84.3712 8.75435 84.4893 8.77402 84.6074C8.77402 84.7254 8.81337 84.8828 8.85272 85.0402C8.89206 85.1976 8.97075 85.355 9.06911 85.5125C9.28551 85.8863 9.60028 86.1224 9.95439 86.2405C10.3085 86.3585 10.6429 86.3192 10.938 86.1421C11.1741 85.965 11.3315 85.7682 11.4102 85.5321Z" fill="black"/>
<path d="M10.2888 80.7902C10.6626 80.5934 10.8987 80.3573 10.997 80.0425C11.0954 79.7277 11.0561 79.4128 10.879 79.0784C10.7806 78.8619 10.6429 78.6848 10.4659 78.5668L9.91504 78.8422L9.99373 78.9013C10.0331 78.9406 10.0921 78.9996 10.1511 79.0784C10.2101 79.1571 10.2691 79.2358 10.3282 79.3342C10.5249 79.6883 10.4069 79.9835 9.97406 80.1999L7.57399 81.4198L7.12152 80.5344L6.57068 80.8099L7.02315 81.6953L5.68541 82.3839L5.96083 82.9349L6.88545 82.4627C7.16086 82.3249 7.35759 82.3643 7.47563 82.5807L7.7117 83.0529L8.26253 82.7775L7.86908 82.0101L10.2888 80.7902Z" fill="black"/>
<path d="M8.41992 73.451C8.10515 72.5459 7.53464 71.8769 6.70839 71.444C5.88214 71.0111 5.03621 70.9521 4.17061 71.2473C3.30501 71.5424 2.67549 72.113 2.28203 72.9394C1.88858 73.7855 1.84923 74.6512 2.14432 75.576L2.8132 77.5436L9.06911 75.3989L8.41992 73.451ZM3.246 76.6779L2.79352 75.3792C2.53778 74.6512 2.57712 73.9429 2.89189 73.2936C3.20665 72.6246 3.71814 72.172 4.40668 71.9359C5.09523 71.6998 5.78377 71.7392 6.43297 72.0737C7.08217 72.4081 7.53464 72.9394 7.79039 73.6674L8.24286 74.966L3.246 76.6779Z" fill="black"/>
<path d="M6.88543 68.2102L2.48605 69.2683L2.64243 69.9187L7.04182 68.8607L6.88543 68.2102Z" fill="black"/>
<path d="M1.31807 69.5748C1.21971 69.5158 1.12134 69.4961 1.00331 69.5354C0.885271 69.5551 0.806581 69.6338 0.747563 69.7322C0.688545 69.8306 0.668872 69.929 0.708217 70.047C0.747563 70.1651 0.806581 70.2438 0.904944 70.3028C1.00331 70.3618 1.10167 70.3815 1.21971 70.3422C1.33774 70.3225 1.41643 70.2438 1.47545 70.1454C1.53447 70.047 1.55414 69.9486 1.5148 69.8306C1.47545 69.7322 1.41643 69.6338 1.31807 69.5748Z" fill="black"/>
<path d="M2.02629 67.2727L2.14432 67.9613L6.31494 65.4035L6.1969 64.7541L1.43611 63.672L1.55414 64.3803L5.37065 65.2264L2.02629 67.2727Z" fill="black"/>
<path d="M3.75749 61.7634L3.52141 58.0839L3.18698 58.0643C2.53778 58.1036 2.00662 58.3594 1.61316 58.7923C1.21971 59.2251 1.04265 59.7564 1.082 60.386C1.12134 60.9763 1.39676 61.4879 1.86891 61.8814C2.36072 62.2946 2.93123 62.4717 3.58043 62.4324C4.22963 62.393 4.78047 62.1175 5.19359 61.6453C5.62639 61.1731 5.82312 60.6222 5.7641 60.0122C5.74443 59.7761 5.70508 59.5596 5.60672 59.3629C5.50836 59.1661 5.42967 58.989 5.35097 58.8513C5.27228 58.7136 5.15425 58.5955 5.03621 58.4971C4.91818 58.3791 4.83948 58.32 4.80014 58.2807C4.76079 58.2413 4.72145 58.2217 4.6821 58.202L4.28865 58.6545L4.48538 58.8119C4.62308 58.9103 4.76079 59.0677 4.8985 59.3038C5.03621 59.54 5.1149 59.7957 5.13457 60.0712C5.15425 60.4844 5.03621 60.8583 4.76079 61.1928C4.50505 61.5273 4.15094 61.724 3.75749 61.7634ZM2.164 61.3502C1.86891 61.0747 1.71152 60.7402 1.67218 60.3467C1.65251 59.9532 1.75087 59.599 2.00662 59.3038C2.26236 59.0087 2.57712 58.8119 2.99025 58.7332L3.20665 61.8027C2.79352 61.783 2.45909 61.6256 2.164 61.3502Z" fill="black"/>
<path d="M5.92148 45.747C6.57068 45.3535 6.98381 44.8222 7.16086 44.1139C7.33792 43.4055 7.23955 42.7365 6.8461 42.0872C6.45265 41.4379 5.92148 41.0247 5.21327 40.8476L1.31807 39.8638L1.14102 40.5525L5.03621 41.5363C5.58705 41.674 6.00017 41.9692 6.29526 42.4414C6.59035 42.9136 6.66905 43.4055 6.53134 43.9368C6.39363 44.468 6.09854 44.8812 5.62639 45.1567C5.15425 45.4322 4.64276 45.5109 4.09192 45.3732L0.196727 44.3893L0 45.0977L3.89519 46.0815C4.60341 46.2389 5.27228 46.1405 5.92148 45.747Z" fill="black"/>
<path d="M2.40911 36.7284L2.16988 37.3951L8.39124 39.6284L8.63047 38.9617L2.40911 36.7284Z" fill="black"/>
<path d="M11.1938 37.8372L4.38701 31.7573L4.13127 32.3279L10.938 38.4078L11.1938 37.8372Z" fill="black"/>
<path d="M10.8397 32.2492C11.5675 32.0524 12.1184 31.6392 12.4725 31.0096C12.8266 30.3799 12.925 29.6913 12.7282 28.9829C12.5315 28.2549 12.1184 27.704 11.4889 27.3498L8.02646 25.3429L7.67235 25.9528L11.1544 27.9401C11.6462 28.2156 11.961 28.6288 12.0987 29.16C12.2364 29.6913 12.1774 30.2029 11.902 30.6751C11.6266 31.1473 11.2134 31.4621 10.6823 31.5999C10.1511 31.7376 9.63962 31.6589 9.14781 31.3834L5.68541 29.3765L5.3313 29.9864L8.7937 31.9934C9.4429 32.3476 10.1118 32.4263 10.8397 32.2492Z" fill="black"/>
<path d="M14.3611 27.704L14.8922 27.0153L13.8496 23.6507L17.371 23.8081L17.8825 23.1391L13.6529 22.9817L12.5315 19.2433L12.02 19.9122L12.9446 22.962L9.75766 22.844L9.24617 23.513L13.1414 23.6507L14.3611 27.704Z" fill="black"/>
<path d="M20.5973 20.3254L18.5317 18.1217L20.7154 16.0557L20.2629 15.5638L18.0595 17.6495L16.5054 15.9967L19.2596 13.3994L18.7874 12.9272L15.5414 16.0164L20.0858 20.8173L20.5973 20.3254Z" fill="black"/>
<path d="M21.9585 13.0891L21.4375 13.5087L24.2754 17.0336L24.7964 16.614L21.9585 13.0891Z" fill="black"/>
<path d="M20.676 12.5534C20.794 12.573 20.8924 12.5337 20.9908 12.455C21.0891 12.3763 21.1285 12.2779 21.1482 12.1795C21.1678 12.0615 21.1285 11.9631 21.0498 11.8647C20.9711 11.7663 20.8727 11.727 20.7744 11.7073C20.676 11.6876 20.558 11.727 20.4596 11.8057C20.3612 11.8844 20.3219 11.9828 20.3022 12.0811C20.2826 12.1992 20.3219 12.2976 20.4006 12.396C20.4793 12.4943 20.5776 12.5337 20.676 12.5534Z" fill="black"/>
<path d="M26.6172 15.2293L25.1614 13.183C24.9056 12.8288 24.8073 12.455 24.886 12.0811C24.9647 11.7073 25.1417 11.3925 25.4565 11.176L25.6925 11.0186L25.2991 10.4874L25.1417 10.6054C24.9843 10.7235 24.8466 10.8415 24.7286 10.999C24.6105 11.1367 24.5319 11.2744 24.4925 11.3925C24.4335 11.5105 24.4138 11.6286 24.3745 11.7466C24.3548 11.8647 24.3351 11.9434 24.3351 11.9828C24.3351 12.0221 24.3351 12.0615 24.3351 12.0811L23.981 11.5892L23.4499 11.9828L26.086 15.6622L26.6172 15.2293Z" fill="black"/>
<path d="M27.4828 11.4122C27.7188 11.4712 27.9746 11.4909 28.2107 11.4318C28.4664 11.3728 28.7025 11.3138 28.9385 11.2547C29.1746 11.1957 29.4107 11.1564 29.6074 11.176C29.8238 11.1957 29.9615 11.2744 30.0599 11.4318C30.1779 11.6089 30.1976 11.8254 30.1189 12.0221C30.0402 12.2386 29.8828 12.4156 29.6074 12.5927C29.4894 12.6714 29.3517 12.7108 29.214 12.7501C29.0763 12.7895 28.9582 12.7895 28.8402 12.7895C28.7418 12.7895 28.6238 12.7698 28.5254 12.7501C28.4271 12.7305 28.3484 12.7108 28.3287 12.6911C28.2893 12.6714 28.2697 12.6714 28.25 12.6518L28.0926 13.3011L28.191 13.3404C28.25 13.3601 28.3484 13.3798 28.4664 13.3994C28.5844 13.4191 28.7221 13.4388 28.8599 13.4388C28.9976 13.4388 29.1746 13.4191 29.3713 13.3601C29.5681 13.3011 29.7451 13.2224 29.9419 13.124C30.3746 12.8682 30.6501 12.5337 30.7681 12.1598C30.8861 11.786 30.8468 11.4318 30.6501 11.0973C30.4927 10.8415 30.296 10.6841 30.0599 10.6054C29.8238 10.5267 29.5681 10.5267 29.3123 10.5661C29.0566 10.6251 28.8205 10.6841 28.5844 10.7432C28.3484 10.8022 28.132 10.8415 27.9156 10.8415C27.7188 10.8415 27.5615 10.7628 27.4631 10.6054C27.3647 10.448 27.3647 10.2906 27.4237 10.0939C27.4828 9.89709 27.6205 9.73968 27.8369 9.60195C28.0139 9.50357 28.191 9.44454 28.368 9.42487C28.5451 9.40519 28.6828 9.40519 28.7615 9.42487C28.8205 9.44454 28.8795 9.46422 28.9189 9.48389L29.0763 8.83458L28.9779 8.81491C28.9189 8.79523 28.8402 8.79523 28.7418 8.77555C28.6435 8.77555 28.5254 8.75588 28.4074 8.77555C28.2893 8.77555 28.132 8.81491 27.9746 8.85426C27.8172 8.89361 27.6598 8.97231 27.5024 9.07069C27.1287 9.28713 26.8926 9.60195 26.7745 9.95612C26.6565 10.33 26.6959 10.6448 26.8729 10.9399C27.05 11.1957 27.2467 11.3531 27.4828 11.4122Z" fill="black"/>
<path d="M30.4337 7.4966L29.9615 7.73272L30.2369 8.28365L31.0042 7.89013L32.2239 10.2906C32.4206 10.6645 32.6567 10.9006 32.9518 11.0186C33.2469 11.1367 33.5813 11.0777 33.9157 10.9006C34.1321 10.8022 34.3092 10.6645 34.4272 10.4874L34.1518 9.93644L34.0928 10.0151C34.0534 10.0545 33.9944 10.1135 33.9157 10.1726C33.837 10.2316 33.7584 10.2906 33.66 10.3496C33.3059 10.5464 33.0108 10.4283 32.7944 9.99547L31.5747 7.59499L32.46 7.14243L32.1845 6.5915L31.2993 7.04405L30.6107 5.70608L30.0599 5.98154L30.532 6.90632C30.6894 7.18179 30.6501 7.37855 30.4337 7.4966Z" fill="black"/>
<path d="M39.5815 8.42138C40.4864 8.10657 41.1553 7.53596 41.5881 6.70956C42.0209 5.88316 42.0799 5.03709 41.7848 4.17134C41.4897 3.30559 40.9192 2.67595 40.093 2.28243C39.247 1.88891 38.3814 1.84956 37.4568 2.1447L35.4896 2.81369L37.6339 9.07069L39.5815 8.42138ZM37.6535 2.79401C38.3814 2.53822 39.0897 2.57757 39.7389 2.89239C40.4077 3.20721 40.8602 3.71879 41.0963 4.40745C41.3323 5.09612 41.293 5.78478 40.9586 6.43409C40.6241 7.08341 40.093 7.53596 39.3651 7.79175L38.0667 8.22462L36.3552 3.22688L37.6535 2.79401Z" fill="black"/>
<path d="M42.8668 1.45603C42.9652 1.51506 43.0635 1.53474 43.1816 1.49539C43.2996 1.45603 43.3783 1.39701 43.4373 1.29862C43.4963 1.20024 43.516 1.10186 43.4767 0.983806C43.457 0.86575 43.3783 0.787045 43.2799 0.728017C43.1816 0.668988 43.0832 0.649312 42.9652 0.688664C42.8471 0.728017 42.7685 0.787045 42.7094 0.885426C42.6504 0.983806 42.6307 1.08219 42.6701 1.20024C42.7094 1.3183 42.7685 1.397 42.8668 1.45603Z" fill="black"/>
<path d="M43.7634 2.48627L43.1131 2.64261L44.1705 7.04277L44.8209 6.88642L43.7634 2.48627Z" fill="black"/>
<path d="M47.8047 5.37158L45.7587 2.02664L45.0505 2.1447L47.6276 6.31604L48.2768 6.21766L49.3391 1.43636L48.6506 1.55441L47.8047 5.37158Z" fill="black"/>
<path d="M54.218 1.59377C53.7655 1.20024 53.254 1.02316 52.6245 1.06251C52.0343 1.10186 51.5228 1.37733 51.1293 1.84956C50.7162 2.34146 50.5392 2.91207 50.5785 3.56138C50.6179 4.21069 50.8933 4.76162 51.3654 5.17482C51.8376 5.6077 52.3884 5.80446 52.9983 5.74543C53.2343 5.72575 53.4507 5.6864 53.6475 5.58802C53.8442 5.48964 54.0212 5.41094 54.1589 5.33223C54.2966 5.25353 54.4147 5.13547 54.5131 5.01741C54.6311 4.89936 54.6901 4.82065 54.7295 4.7813C54.7688 4.74195 54.7885 4.70259 54.8081 4.66324L54.3557 4.26972L54.1983 4.46648C54.0999 4.60421 53.9425 4.74195 53.7065 4.87968C53.4704 5.01741 53.2147 5.09612 52.9392 5.11579C52.5261 5.13547 52.1523 5.01741 51.8179 4.74195C51.4835 4.46648 51.2867 4.13199 51.2474 3.71879L54.9262 3.48267L54.9459 3.14818C54.9065 2.51854 54.6704 1.98729 54.218 1.59377ZM51.208 3.18753C51.2277 2.79401 51.3851 2.45952 51.6605 2.16437C51.9359 1.86923 52.2704 1.69215 52.6638 1.67247C53.0573 1.65279 53.4114 1.75118 53.7065 2.00696C54.0016 2.26275 54.1983 2.57757 54.277 2.99077L51.208 3.18753Z" fill="black"/>
</g>
<circle cx="57" cy="55" r="5" fill="#08A459"/>
</svg>
