<svg width="1400" height="778" viewBox="0 0 1400 778" fill="none" xmlns="http://www.w3.org/2000/svg">
<g opacity="0.15" clip-path="url(#clip0)">
<path d="M0 199.505H1178" stroke="url(#paint0_linear)"/>
<line y1="-0.5" x2="388" y2="-0.5" transform="matrix(1 0 0 -1 -110 404.524)" stroke="url(#paint1_linear)"/>
<line x1="-188.234" y1="617.387" x2="364.004" y2="617.387" stroke="url(#paint2_linear)"/>
<line x1="-188.234" y1="698.657" x2="364.004" y2="698.657" stroke="url(#paint3_linear)"/>
<line x1="-188.238" y1="112.657" x2="63.7617" y2="112.657" stroke="url(#paint4_linear)"/>
<line x1="-188.238" y1="45.6572" x2="2.76172" y2="45.6572" stroke="url(#paint5_linear)"/>
<path d="M-187.422 404.896L250.498 828.5" stroke="url(#paint6_linear)"/>
<path d="M-186.387 403.986L127 111.5" stroke="url(#paint7_linear)"/>
<mask id="path-9-inside-1" fill="white">
<path d="M-177.266 112.157C-138.591 112.157 -100.296 119.749 -64.5654 134.499C-28.835 149.248 3.63046 170.867 30.9773 198.121C58.3241 225.375 80.0169 257.731 94.8169 293.34C109.617 328.949 117.234 367.114 117.234 405.657C117.234 444.2 109.617 482.366 94.8168 517.975C80.0169 553.584 58.3241 585.939 30.9773 613.193C3.6304 640.447 -28.835 662.066 -64.5654 676.816C-100.296 691.566 -138.591 699.157 -177.266 699.157L-177.266 405.657L-177.266 112.157Z"/>
</mask>
<path d="M-177.266 112.157C-138.591 112.157 -100.296 119.749 -64.5654 134.499C-28.835 149.248 3.63046 170.867 30.9773 198.121C58.3241 225.375 80.0169 257.731 94.8169 293.34C109.617 328.949 117.234 367.114 117.234 405.657C117.234 444.2 109.617 482.366 94.8168 517.975C80.0169 553.584 58.3241 585.939 30.9773 613.193C3.6304 640.447 -28.835 662.066 -64.5654 676.816C-100.296 691.566 -138.591 699.157 -177.266 699.157L-177.266 405.657L-177.266 112.157Z" stroke="#D0D0D0" stroke-width="2" mask="url(#path-9-inside-1)"/>
<mask id="path-10-inside-2" fill="white">
<path d="M-186 -10C-130.713 -10 -75.9683 0.798912 -24.8903 21.7802C26.1878 42.7616 72.5985 73.5144 111.692 112.283C150.785 151.051 181.796 197.076 202.953 247.73C224.11 298.383 235 352.673 235 407.5C235 462.327 224.11 516.617 202.953 567.27C181.796 617.924 150.785 663.949 111.692 702.717C72.5984 741.486 26.1877 772.238 -24.8903 793.22C-75.9684 814.201 -130.714 825 -186 825L-186 407.5L-186 -10Z"/>
</mask>
<path d="M-186 -10C-130.713 -10 -75.9683 0.798912 -24.8903 21.7802C26.1878 42.7616 72.5985 73.5144 111.692 112.283C150.785 151.051 181.796 197.076 202.953 247.73C224.11 298.383 235 352.673 235 407.5C235 462.327 224.11 516.617 202.953 567.27C181.796 617.924 150.785 663.949 111.692 702.717C72.5984 741.486 26.1877 772.238 -24.8903 793.22C-75.9684 814.201 -130.714 825 -186 825L-186 407.5L-186 -10Z" stroke="url(#paint8_linear)" stroke-width="2" mask="url(#path-10-inside-2)"/>
<line x1="116.734" y1="405.157" x2="116.734" y2="46.1572" stroke="url(#paint9_linear)"/>
<line x1="116.5" y1="405" x2="116.5" y2="734" stroke="url(#paint10_linear)"/>
<line x1="200.5" y1="404.524" x2="200.5" y2="45.5239" stroke="url(#paint11_linear)"/>
<line x1="200.5" y1="405" x2="200.5" y2="711" stroke="url(#paint12_linear)"/>
</g>
<defs>
<linearGradient id="paint0_linear" x1="940.37" y1="16513.8" x2="0.433445" y2="16513.8" gradientUnits="userSpaceOnUse">
<stop stop-color="#D0D0D0" stop-opacity="0"/>
<stop offset="0.354167" stop-color="#D0D0D0"/>
<stop offset="1" stop-color="#D0D0D0"/>
</linearGradient>
<linearGradient id="paint1_linear" x1="388" y1="0.40838" x2="0.363382" y2="-0.451699" gradientUnits="userSpaceOnUse">
<stop stop-color="#D0D0D0" stop-opacity="0"/>
<stop offset="0.409581" stop-color="#D0D0D0" stop-opacity="0.7"/>
<stop offset="1" stop-color="#D0D0D0"/>
</linearGradient>
<linearGradient id="paint2_linear" x1="364.004" y1="618.296" x2="-187.714" y2="616.553" gradientUnits="userSpaceOnUse">
<stop stop-color="#D0D0D0" stop-opacity="0"/>
<stop offset="0.409581" stop-color="#D0D0D0" stop-opacity="0.7"/>
<stop offset="1" stop-color="#D0D0D0"/>
</linearGradient>
<linearGradient id="paint3_linear" x1="364.004" y1="699.566" x2="-187.714" y2="697.823" gradientUnits="userSpaceOnUse">
<stop stop-color="#D0D0D0" stop-opacity="0"/>
<stop offset="0.409581" stop-color="#D0D0D0" stop-opacity="0.7"/>
<stop offset="1" stop-color="#D0D0D0"/>
</linearGradient>
<linearGradient id="paint4_linear" x1="63.7617" y1="113.565" x2="-62.2384" y2="113.587" gradientUnits="userSpaceOnUse">
<stop stop-color="#D0D0D0" stop-opacity="0"/>
<stop offset="0.409581" stop-color="#D0D0D0" stop-opacity="0.7"/>
<stop offset="1" stop-color="#D0D0D0"/>
</linearGradient>
<linearGradient id="paint5_linear" x1="2.76173" y1="46.5652" x2="-92.7384" y2="46.5778" gradientUnits="userSpaceOnUse">
<stop stop-color="white" stop-opacity="0"/>
<stop offset="0.409581" stop-color="white" stop-opacity="0.7"/>
<stop offset="1" stop-color="white"/>
</linearGradient>
<linearGradient id="paint6_linear" x1="243.181" y1="831.822" x2="31.111" y2="615.195" gradientUnits="userSpaceOnUse">
<stop stop-color="#D0D0D0" stop-opacity="0"/>
<stop offset="0.409581" stop-color="#D0D0D0" stop-opacity="0.7"/>
<stop offset="1" stop-color="#D0D0D0"/>
</linearGradient>
<linearGradient id="paint7_linear" x1="106.77" y1="113.636" x2="-39.3559" y2="259.446" gradientUnits="userSpaceOnUse">
<stop stop-color="#D0D0D0" stop-opacity="0"/>
<stop offset="0.409581" stop-color="#D0D0D0" stop-opacity="0.7"/>
<stop offset="1" stop-color="#D0D0D0"/>
</linearGradient>
<linearGradient id="paint8_linear" x1="-186" y1="407.5" x2="235" y2="407.5" gradientUnits="userSpaceOnUse">
<stop stop-color="#D0D0D0"/>
<stop offset="1" stop-color="#D0D0D0" stop-opacity="0"/>
</linearGradient>
<linearGradient id="paint9_linear" x1="117.642" y1="46.1572" x2="117.687" y2="225.657" gradientUnits="userSpaceOnUse">
<stop stop-color="#D0D0D0" stop-opacity="0"/>
<stop offset="0.409581" stop-color="#D0D0D0" stop-opacity="0.7"/>
<stop offset="1" stop-color="#D0D0D0"/>
</linearGradient>
<linearGradient id="paint10_linear" x1="115.592" y1="734" x2="115.555" y2="569.5" gradientUnits="userSpaceOnUse">
<stop stop-color="#D0D0D0" stop-opacity="0"/>
<stop offset="0.409581" stop-color="#D0D0D0" stop-opacity="0.7"/>
<stop offset="1" stop-color="#D0D0D0"/>
</linearGradient>
<linearGradient id="paint11_linear" x1="201.408" y1="45.5239" x2="201.452" y2="225.024" gradientUnits="userSpaceOnUse">
<stop stop-color="#D0D0D0" stop-opacity="0"/>
<stop offset="0.409581" stop-color="#D0D0D0" stop-opacity="0.7"/>
<stop offset="1" stop-color="#D0D0D0"/>
</linearGradient>
<linearGradient id="paint12_linear" x1="199.592" y1="711" x2="199.56" y2="558" gradientUnits="userSpaceOnUse">
<stop stop-color="#D0D0D0" stop-opacity="0"/>
<stop offset="0.409581" stop-color="#D0D0D0" stop-opacity="0.7"/>
<stop offset="1" stop-color="#D0D0D0"/>
</linearGradient>
<clipPath id="clip0">
<rect width="1400" height="778" fill="white" transform="translate(1400 778) rotate(-180)"/>
</clipPath>
</defs>
</svg>
