<svg width="226" height="85" viewBox="0 0 226 85" fill="none" xmlns="http://www.w3.org/2000/svg">
<path d="M17.3021 52.7418L17.0556 52.6015L16.8088 52.7411L0.5 61.9619V0.503906H33.5V61.9592L17.3021 52.7418Z" fill="#C19F63" stroke="#C19F63"/>
<path d="M18.2188 42.1595H16.8628C16.7867 41.8816 16.7361 41.5974 16.7118 41.3102C16.2406 41.9463 15.4062 42.3076 14.2086 42.3076C11.7197 42.3076 10.3242 40.4068 10.3242 37.9711C10.3242 35.3836 11.8312 33.4321 14.5322 33.4321C16.737 33.4321 18.0425 34.6825 18.2403 36.1461H16.3881C16.2119 35.5715 15.7659 34.8813 14.5071 34.8813C12.7411 34.8813 12.2412 36.3702 12.2412 37.8807C12.2412 39.3913 12.8131 40.8332 14.5179 40.8332C16.0968 40.8332 16.3953 39.7202 16.3953 38.9576V38.8709H14.5215V37.3314H18.2188V42.1595Z" fill="white"/>
<path d="M19.8242 37.443C19.8242 36.7925 19.8242 36.2287 19.8242 35.6794H21.5794C21.6045 35.8276 21.6297 36.4672 21.6297 36.8178C21.9174 36.095 22.6008 35.5421 23.6978 35.5312V37.2478C22.403 37.2081 21.6297 37.5586 21.6297 39.3366V42.1626H19.8314L19.8242 37.443Z" fill="white"/>
<path opacity="0.6" d="M17.5137 76.3232C17.2324 76.3232 16.9922 76.3643 16.793 76.4463L18.6562 73.5635H17.3379L14.9355 77.2842L14.7773 77.5244C14.666 77.6885 14.5547 77.9287 14.4434 78.2451C14.3262 78.5674 14.2734 78.8896 14.2734 79.2119C14.2734 79.9971 14.5605 80.6709 15.1465 81.2393C15.7324 81.8018 16.4414 82.0889 17.2734 82.0889C18.1055 82.0889 18.8086 81.8018 19.3945 81.2393C19.9805 80.6709 20.2734 79.9971 20.2734 79.2119C20.2734 78.4326 19.9922 77.7588 19.4355 77.1846C18.8789 76.6104 18.2402 76.3232 17.5137 76.3232ZM19.0781 79.2061C19.0781 79.6865 18.9023 80.0967 18.5508 80.4365C18.1992 80.7764 17.7773 80.9463 17.2734 80.9463C16.7695 80.9463 16.3418 80.7764 15.9961 80.4365C15.6445 80.0967 15.4746 79.6865 15.4746 79.2061C15.4746 78.7256 15.6445 78.3154 15.9961 77.9756C16.3418 77.6357 16.7695 77.4658 17.2734 77.4658C17.7773 77.4658 18.1992 77.6357 18.5508 77.9756C18.9023 78.3154 19.0781 78.7256 19.0781 79.2061Z" fill="#131313"/>
<path d="M193 0.0380859V61.0057L209.553 51.6466L226 61.0057V0.0380859H193Z" fill="url(#paint0_linear)"/>
<path d="M209.43 37.5874L216 34.4441L209.43 31.0215L203 34.3044L209.43 37.5874Z" fill="white"/>
<path d="M206.164 37.5874V40.102L209.431 41.9181L212.873 40.102V37.5874L209.431 39.2638L206.164 37.5874Z" fill="white"/>
<path opacity="0.6" d="M212.273 82V80.7988H208.195C208.348 80.5059 208.564 80.2246 208.846 79.9551C209.127 79.6855 209.42 79.457 209.713 79.2637C210.006 79.0762 210.305 78.8652 210.615 78.6309C210.926 78.3965 211.201 78.1738 211.441 77.9512C211.682 77.7285 211.881 77.4531 212.039 77.125C212.191 76.7969 212.273 76.4453 212.273 76.0586C212.273 75.332 212.01 74.7227 211.482 74.2246C210.955 73.7324 210.275 73.4805 209.455 73.4805C209.033 73.4805 208.658 73.5508 208.318 73.6914C207.979 73.832 207.715 73.9902 207.539 74.1543C207.357 74.3242 207.199 74.5176 207.064 74.7344C206.93 74.957 206.848 75.1094 206.818 75.1914C206.789 75.2793 206.766 75.3496 206.754 75.4023L207.832 75.8828L207.873 75.7598C207.902 75.6777 207.961 75.5723 208.043 75.4551C208.125 75.3379 208.225 75.2266 208.336 75.1094C208.447 74.9922 208.605 74.8926 208.805 74.8105C209.004 74.7285 209.221 74.6816 209.449 74.6816C209.924 74.6816 210.293 74.8047 210.557 75.0508C210.82 75.2969 210.949 75.6367 210.949 76.0586C210.949 76.3574 210.873 76.6328 210.715 76.8848C210.562 77.1367 210.357 77.3535 210.105 77.541C209.854 77.7285 209.578 77.9219 209.273 78.1152C208.975 78.3086 208.676 78.5195 208.371 78.7539C208.066 78.9883 207.791 79.2461 207.539 79.5273C207.287 79.8086 207.082 80.166 206.924 80.5879C206.771 81.0098 206.689 81.4844 206.689 82H212.273Z" fill="#131313"/>
<path opacity="0.6" d="M165.273 81V79.7988H161.195C161.348 79.5059 161.564 79.2246 161.846 78.9551C162.127 78.6855 162.42 78.457 162.713 78.2637C163.006 78.0762 163.305 77.8652 163.615 77.6309C163.926 77.3965 164.201 77.1738 164.441 76.9512C164.682 76.7285 164.881 76.4531 165.039 76.125C165.191 75.7969 165.273 75.4453 165.273 75.0586C165.273 74.332 165.01 73.7227 164.482 73.2246C163.955 72.7324 163.275 72.4805 162.455 72.4805C162.033 72.4805 161.658 72.5508 161.318 72.6914C160.979 72.832 160.715 72.9902 160.539 73.1543C160.357 73.3242 160.199 73.5176 160.064 73.7344C159.93 73.957 159.848 74.1094 159.818 74.1914C159.789 74.2793 159.766 74.3496 159.754 74.4023L160.832 74.8828L160.873 74.7598C160.902 74.6777 160.961 74.5723 161.043 74.4551C161.125 74.3379 161.225 74.2266 161.336 74.1094C161.447 73.9922 161.605 73.8926 161.805 73.8105C162.004 73.7285 162.221 73.6816 162.449 73.6816C162.924 73.6816 163.293 73.8047 163.557 74.0508C163.82 74.2969 163.949 74.6367 163.949 75.0586C163.949 75.3574 163.873 75.6328 163.715 75.8848C163.562 76.1367 163.357 76.3535 163.105 76.541C162.854 76.7285 162.578 76.9219 162.273 77.1152C161.975 77.3086 161.676 77.5195 161.371 77.7539C161.066 77.9883 160.791 78.2461 160.539 78.5273C160.287 78.8086 160.082 79.166 159.924 79.5879C159.771 80.0098 159.689 80.4844 159.689 81H165.273Z" fill="#131313"/>
<path d="M145 0V62L162.055 52.4825L179 62V0H145Z" fill="url(#paint1_linear)"/>
<path d="M166.716 34.3717C166.716 34.2629 166.771 34.2629 166.825 34.2629H168.69C168.8 34.2629 168.8 34.3173 168.8 34.3717V43.6173C168.8 43.726 168.745 43.726 168.69 43.726H166.825C166.716 43.726 166.661 43.6717 166.661 43.5629L166.716 34.3717ZM166.606 31.7067C166.606 30.9453 167.1 30.5103 167.813 30.5103C168.525 30.5103 169.019 30.9997 169.019 31.7067C169.019 32.4681 168.525 32.9032 167.813 32.9032C167.045 32.9032 166.606 32.4681 166.606 31.7067ZM161.232 38.2331C160.903 36.9278 160.135 34.0997 159.806 32.7401C159.532 34.0997 158.929 36.4383 158.435 38.2331H161.232ZM157.996 40.1366L157.064 43.6717C157.009 43.7804 157.009 43.7804 156.9 43.7804H155.145C155.035 43.7804 155.035 43.726 155.035 43.6173L158.38 31.9787C158.435 31.7611 158.49 31.598 158.49 30.9997C158.49 30.891 158.545 30.891 158.6 30.891H161.067C161.177 30.891 161.177 30.9453 161.177 30.9997L164.906 43.6173C164.961 43.726 164.906 43.7804 164.796 43.7804H162.822C162.713 43.7804 162.658 43.726 162.658 43.6717L161.78 40.2453H157.996V40.1366Z" fill="#FF7F18"/>
<path d="M65.3523 52.8983L65.1058 52.758L64.859 52.8976L48.5 62.1468V0.503906H81.6001V62.1441L65.3523 52.8983Z" fill="#C19F63" stroke="#C19F63"/>
<path d="M63.6496 34.545H62.3967V40.845H63.6496V42.333H59.125V40.845H60.3818V34.545H59.125V33.0532H63.6496V34.545Z" fill="white"/>
<path d="M64.6602 37.2147C64.6602 36.6333 64.6602 35.9983 64.6602 35.4819H66.5493C66.5886 35.6656 66.6161 36.1437 66.6318 36.3541C66.8636 35.9295 67.4174 35.3213 68.6703 35.3213C70.0842 35.3213 70.9954 36.2623 70.9954 37.9989V42.3366H69.0355V38.194C69.0355 37.4289 68.7763 36.8552 67.9083 36.8552C67.0403 36.8552 66.624 37.3065 66.624 38.5229V42.3481H64.6602V37.2147Z" fill="white"/>
<path opacity="0.6" d="M62.0527 73.5635V74.7646H66.2539L62.7734 81.9658H64.0977L67.6367 74.6475V73.5635H62.0527Z" fill="#131313"/>
<path opacity="0.6" d="M115.896 76.5586L116.014 76.4883C116.096 76.4531 116.189 76.3828 116.295 76.2891C116.4 76.1953 116.512 76.0781 116.623 75.9434C116.74 75.8145 116.834 75.6387 116.916 75.4277C116.998 75.2168 117.033 74.9941 117.033 74.7656C117.033 74.0918 116.799 73.541 116.33 73.1191C115.861 72.6973 115.217 72.4863 114.391 72.4863C114.057 72.4863 113.734 72.5273 113.424 72.6211C113.107 72.7148 112.855 72.8145 112.668 72.9199C112.475 73.0254 112.293 73.1543 112.123 73.3008C111.959 73.4531 111.848 73.5527 111.801 73.6113C111.754 73.6699 111.713 73.7109 111.689 73.7402L112.533 74.5781L112.732 74.3496C112.861 74.209 113.084 74.0625 113.395 73.9102C113.711 73.7578 114.039 73.6816 114.391 73.6816C114.807 73.6816 115.129 73.793 115.363 74.0039C115.598 74.2207 115.715 74.5137 115.715 74.8828C115.715 75.252 115.598 75.5449 115.363 75.7559C115.129 75.9727 114.807 76.0781 114.391 76.0781H113.553V77.2793H114.391C114.912 77.2793 115.322 77.4082 115.621 77.6602C115.926 77.9121 116.072 78.2285 116.072 78.6035C116.072 78.9785 115.926 79.2949 115.621 79.5469C115.322 79.7988 114.912 79.9219 114.391 79.9219C114.121 79.9219 113.857 79.8926 113.611 79.8223C113.365 79.752 113.166 79.6758 113.014 79.5938C112.861 79.5117 112.721 79.4121 112.58 79.3008C112.445 79.1895 112.357 79.1133 112.316 79.0664C112.275 79.0195 112.246 78.9844 112.229 78.9609L111.391 79.7988L111.508 79.9453C111.584 80.0332 111.701 80.1387 111.865 80.2676C112.029 80.3965 112.229 80.5254 112.451 80.6543C112.674 80.7832 112.961 80.8887 113.301 80.9824C113.646 81.0762 114.01 81.123 114.391 81.123C115.293 81.123 116.02 80.8828 116.57 80.4082C117.121 79.9336 117.391 79.3535 117.391 78.668C117.391 78.3633 117.338 78.082 117.232 77.8242C117.127 77.5664 117.004 77.3672 116.869 77.2207C116.74 77.0801 116.588 76.9512 116.412 76.8398C116.242 76.7285 116.125 76.6582 116.055 76.6289C115.984 76.5996 115.932 76.5762 115.896 76.5586Z" fill="#131313"/>
<path d="M97 0V62L114.055 52.4825L131 62V0H97Z" fill="url(#paint2_linear)"/>
<path d="M105.502 31.1629C105.611 31.3805 105.721 31.598 105.776 31.7068C105.94 31.9787 106.05 32.2506 106.215 32.5226L108.463 36.9822C108.518 37.091 108.628 37.2542 108.573 37.4173L105.392 43.3998C105.337 43.5629 105.173 43.7261 105.447 43.7261H107.311C107.586 43.7261 107.586 43.5629 107.75 43.2366L109.889 38.777C110.053 38.8857 111.808 42.6928 112.192 43.5085C112.247 43.6717 112.302 43.6717 112.521 43.6717C112.85 43.6717 114.495 43.7261 114.66 43.6173C114.715 43.4542 114.386 42.9647 114.276 42.8015L113.453 41.2243C112.795 39.9735 112.028 38.4507 111.37 37.2542C111.26 37.0366 111.26 37.0366 111.589 36.4384C111.753 36.1664 111.863 35.8945 112.028 35.6226C112.137 35.3506 112.302 35.1331 112.411 34.8612L113.673 32.4682C113.782 32.2506 114.331 31.2717 114.44 30.9454C114.495 30.8366 114.276 30.8366 114.166 30.8366H112.521C112.357 30.8366 112.302 30.891 112.247 30.9998L110.602 34.4261C110.547 34.5892 110.108 35.6226 109.999 35.677C109.834 35.2419 109.615 34.8612 109.45 34.4261L108.244 31.9243C108.134 31.7068 108.079 31.4892 107.97 31.3261C107.915 31.2173 107.86 31.1085 107.805 30.9998C107.75 30.8366 107.75 30.7822 107.531 30.7822H105.611C105.392 30.891 105.392 30.891 105.502 31.1629Z" fill="#EFCDE6"/>
<path d="M117.291 39.1041C117.291 38.3427 117.346 37.5813 117.785 36.9286C117.894 36.7655 118.004 36.6023 118.114 36.4935C118.662 36.0041 119.54 35.6778 120.472 35.9497V41.8234C118.662 42.4216 117.291 41.2795 117.291 39.1041ZM120.527 34.1006H119.759C118.278 34.1006 117.072 34.8076 116.414 35.4602C115.756 36.1672 115.098 37.4725 115.098 38.8321C115.098 40.3549 115.372 41.497 116.249 42.476C116.852 43.183 118.004 43.7813 119.375 43.7813C120.088 43.7813 120.636 43.7269 121.349 43.5637C121.678 43.4549 122.501 43.2374 122.72 43.0199C122.72 42.9111 122.665 42.5304 122.665 42.3128C122.665 41.6058 122.665 40.6813 122.665 39.9742V31.0549C122.665 30.8918 122.665 30.8374 122.501 30.8374H120.691C120.417 30.8374 120.527 31.0006 120.527 31.49V34.1006Z" fill="#EFCDE6"/>
<defs>
<linearGradient id="paint0_linear" x1="209.5" y1="0.0380859" x2="209.5" y2="61.0057" gradientUnits="userSpaceOnUse">
<stop stop-color="#C0C0C0"/>
<stop offset="1" stop-color="#AEAFB0"/>
</linearGradient>
<linearGradient id="paint1_linear" x1="162" y1="0.181268" x2="162" y2="61.8254" gradientUnits="userSpaceOnUse">
<stop offset="0.2063" stop-color="#1C0A00"/>
<stop offset="0.5525" stop-color="#2A190D"/>
<stop offset="1" stop-color="#413224"/>
</linearGradient>
<linearGradient id="paint2_linear" x1="114" y1="61.8187" x2="114" y2="-0.0170095" gradientUnits="userSpaceOnUse">
<stop offset="0.217" stop-color="#2E001E"/>
<stop offset="1" stop-color="#2E001F"/>
</linearGradient>
</defs>
</svg>
