<svg width="1400" height="199" viewBox="0 0 1400 199" fill="none" xmlns="http://www.w3.org/2000/svg">
<path d="M0 199H1400V0H0V199Z" fill="#EBEFF8"/>
<g clip-path="url(#clip0)">
<g opacity="0.13" clip-path="url(#clip1)">
<path d="M1136.2 127.8C1136.2 114.93 1146.47 104.638 1159.32 104.638C1172.16 104.638 1182.44 114.93 1182.44 127.8C1182.44 140.662 1172.18 150.949 1159.34 150.963C1146.44 149.658 1136.2 139.324 1136.2 127.8Z" stroke="#161616"/>
<path d="M788.362 140.724L788.362 140.724L788.356 140.713C777.705 120.561 765.969 113.137 758.862 109.897H858.245C854.978 110.962 851.361 112.255 848.321 114.412C844.258 117.295 841.22 121.716 841.22 129.116C841.22 133.168 842.568 138.505 846.518 146.42L888.41 239.526L862.724 289.7L788.362 140.724Z" stroke="#161616"/>
<path d="M939.349 133.063C939.349 124.368 936.001 118.644 931.463 114.772C927.942 111.767 923.72 109.892 919.846 108.586H975.262C970.074 110.48 964.432 113.09 958.553 117.717C952.17 122.741 945.529 130.125 938.878 141.51C939.349 138.68 939.349 135.866 939.349 133.098V133.063Z" stroke="#161616"/>
<path d="M1097.86 207.543L1097.86 207.543L1097.85 207.54C1082.09 200.302 1068.04 193.755 1057.93 185.586C1047.85 177.44 1041.71 167.713 1041.71 154.097C1041.71 139.812 1048.51 127.138 1061.03 117.855C1072.9 109.055 1089.91 103.301 1111.13 102.161C1098.1 107.187 1087.96 119.85 1087.96 137.007C1087.96 142.661 1089.03 147.425 1091.19 151.614C1093.34 155.802 1096.55 159.387 1100.78 162.706C1109.2 169.326 1121.74 174.939 1138.12 182.159C1138.82 182.48 1139.52 182.801 1140.22 183.122C1155.24 190.012 1169.75 196.666 1180.67 205.103C1192.07 213.916 1199.5 224.63 1199.5 239.544C1199.5 257.721 1189.48 270.392 1174.66 278.709C1160.64 286.579 1142.37 290.526 1124.38 291.489C1138.81 285.432 1149.32 271.558 1149.32 255.319C1149.32 243.297 1143.97 234.948 1134.86 227.812C1126.41 221.193 1114.68 215.585 1100.94 209.017C1099.92 208.531 1098.9 208.04 1097.86 207.543Z" stroke="#161616"/>
<path d="M501.028 38.4135C501.028 24.4688 492.617 14.1411 479.303 9.6968L549.897 0.857525V289.029C549.71 289.044 549.468 289.065 549.175 289.093C548.403 289.168 547.276 289.298 545.852 289.515C543.003 289.949 538.962 290.734 534.18 292.138C524.838 294.881 512.66 299.989 501.028 309.468V38.4135Z" stroke="#161616"/>
<path d="M604.321 105.038C655.265 110.102 694.242 150.809 694.242 198.787C694.242 246.983 654.911 287.841 603.627 292.603C617.11 287.587 626.294 273.749 632.221 257.125C638.807 238.652 641.436 216.573 641.436 198.787C641.436 181.002 638.807 158.594 632.221 139.958C626.401 123.486 617.432 109.812 604.321 105.038Z" stroke="#161616"/>
<path d="M323.496 105.038C374.441 110.102 413.418 150.809 413.418 198.787C413.418 246.983 374.087 287.841 322.803 292.603C336.286 287.587 345.47 273.749 351.397 257.125C357.983 238.652 360.612 216.573 360.612 198.787C360.612 181.002 357.983 158.594 351.397 139.958C345.576 123.486 336.608 109.812 323.496 105.038Z" stroke="#161616"/>
<path d="M203.117 198.787C203.117 150.809 242.094 110.102 293.039 105.038C279.928 109.812 270.959 123.486 265.138 139.958C258.552 158.594 255.923 181.002 255.923 198.787C255.923 216.573 258.553 238.652 265.139 257.125C271.066 273.749 280.25 287.587 293.733 292.603C242.448 287.841 203.117 246.983 203.117 198.787Z" stroke="#161616"/>
</g>
</g>
<defs>
<clipPath id="clip0">
<rect width="997" height="199" fill="white" transform="translate(203 -0.000976562)"/>
</clipPath>
<clipPath id="clip1">
<rect width="997.381" height="370.708" fill="white" transform="translate(202.617 0.291016)"/>
</clipPath>
</defs>
</svg>
