<svg width="55" height="52" viewBox="0 0 55 52" fill="none" xmlns="http://www.w3.org/2000/svg">
<g opacity="0.4">
<mask id="path-1-inside-1" fill="white">
<path stroke-width="4" d="M40.1202 0.0668268C45.5965 2.89542 49.9637 7.48171 52.5211 13.0897C55.0785 18.6977 55.6778 25.0023 54.2228 30.9917C52.7678 36.9811 49.3429 42.3081 44.4976 46.1178C39.6524 49.9275 33.6678 51.9991 27.5042 52C21.3406 52.0009 15.3553 49.9312 10.5089 46.123C5.66254 42.3148 2.236 36.9888 0.779183 30.9998C-0.677636 25.0109 -0.0802639 18.7061 2.47544 13.0973C5.03114 7.48853 9.39698 2.90091 14.8724 0.0706587L15.3022 0.90223C10.0132 3.63614 5.79597 8.06759 3.32727 13.4855C0.858564 18.9033 0.281527 24.9935 1.68876 30.7786C3.09598 36.5637 6.40588 41.7083 11.0873 45.3869C15.7687 49.0655 21.5502 51.0648 27.504 51.0639C33.4578 51.063 39.2387 49.062 43.919 45.382C48.5993 41.7019 51.9077 36.5563 53.3131 30.7708C54.7186 24.9852 54.1397 18.8952 51.6694 13.4781C49.199 8.06101 44.9805 3.63083 39.6906 0.898529L40.1202 0.0668268Z"/>
</mask>
<path d="M40.1202 0.0668268C45.5965 2.89542 49.9637 7.48171 52.5211 13.0897C55.0785 18.6977 55.6778 25.0023 54.2228 30.9917C52.7678 36.9811 49.3429 42.3081 44.4976 46.1178C39.6524 49.9275 33.6678 51.9991 27.5042 52C21.3406 52.0009 15.3553 49.9312 10.5089 46.123C5.66254 42.3148 2.236 36.9888 0.779183 30.9998C-0.677636 25.0109 -0.0802639 18.7061 2.47544 13.0973C5.03114 7.48853 9.39698 2.90091 14.8724 0.0706587L15.3022 0.90223C10.0132 3.63614 5.79597 8.06759 3.32727 13.4855C0.858564 18.9033 0.281527 24.9935 1.68876 30.7786C3.09598 36.5637 6.40588 41.7083 11.0873 45.3869C15.7687 49.0655 21.5502 51.0648 27.504 51.0639C33.4578 51.063 39.2387 49.062 43.919 45.382C48.5993 41.7019 51.9077 36.5563 53.3131 30.7708C54.7186 24.9852 54.1397 18.8952 51.6694 13.4781C49.199 8.06101 44.9805 3.63083 39.6906 0.898529L40.1202 0.0668268Z" stroke="white" stroke-width="4" mask="url(#path-1-inside-1)"/>
</g>
</svg>
