<svg width="32" height="44" viewBox="0 0 32 44" fill="none" xmlns="http://www.w3.org/2000/svg">
<path d="M19.9702 19.0279L10.7837 10.0081L19.9527 0.985352H10.7604L1.58984 10.0124L6.19039 14.5402L10.7822 19.0279L15.3755 23.54L19.9702 19.0279Z" fill="#171717"/>
<path d="M26.1246 14.5584L21.5474 10.0248L16.9381 5.5127L12.4162 10.0248L21.5299 19.0417L12.3594 28.1032H21.5517L26.1304 23.6084L30.7252 19.0819L26.1246 14.5584Z" fill="#171717"/>
<path d="M1.91358 33.9735C1.79538 33.9698 1.67821 33.9964 1.57358 34.0508C1.46894 34.1051 1.38042 34.1853 1.31668 34.2836C1.15896 34.5398 1.08382 34.8371 1.10121 35.1363C1.10121 35.8905 1.39238 36.2671 1.97473 36.2661C2.14766 36.2662 2.31972 36.2421 2.48574 36.1944C2.65426 36.1447 2.81998 36.0862 2.98219 36.0192V36.9136C2.62722 37.0631 2.24421 37.137 1.85826 37.1304C1.25942 37.1304 0.799846 36.959 0.479555 36.6164C0.16072 36.2747 0.000572922 35.778 0.000572922 35.1306C-0.00762048 34.7615 0.0721668 34.3956 0.233513 34.0625C0.378866 33.7652 0.611751 33.5181 0.901756 33.3533C1.2136 33.1843 1.56507 33.0991 1.92086 33.1064C2.34674 33.1058 2.76726 33.2 3.15107 33.382L2.82205 34.2147C2.68021 34.1488 2.53434 34.0918 2.38529 34.0438C2.23235 33.9958 2.07263 33.972 1.91213 33.9735" fill="black"/>
<path d="M6.35102 35.9422C6.35514 36.1712 6.28974 36.3961 6.16321 36.5882C6.03018 36.7832 5.84252 36.9358 5.62309 37.0275C5.3614 37.1372 5.07898 37.1906 4.7947 37.184C4.57162 37.1881 4.3487 37.1698 4.12937 37.1294C3.93609 37.0875 3.74846 37.0234 3.57031 36.9385V35.9953C3.77339 36.0986 3.98719 36.1799 4.20798 36.2379C4.40621 36.2926 4.61073 36.322 4.81654 36.3255C4.93884 36.3352 5.06113 36.3066 5.16595 36.2437C5.20079 36.2203 5.22925 36.1888 5.2488 36.152C5.26836 36.1152 5.2784 36.0742 5.27805 36.0326C5.27987 35.9811 5.26396 35.9305 5.23291 35.8891C5.19293 35.8398 5.14345 35.7988 5.08733 35.7685C4.91592 35.6749 4.7395 35.5906 4.55885 35.5158C4.35023 35.4297 4.15435 35.3162 3.9765 35.1785C3.85162 35.0772 3.752 34.949 3.68533 34.8038C3.61891 34.645 3.58669 34.4744 3.59069 34.3027C3.58359 34.1409 3.61628 33.9797 3.68599 33.8329C3.75571 33.6862 3.86037 33.5583 3.99106 33.46C4.31217 33.2417 4.69792 33.1351 5.08733 33.1571C5.5225 33.164 5.95124 33.2618 6.3452 33.4443L6.02491 34.2582C5.72621 34.1083 5.39879 34.0222 5.06403 34.0056C4.95724 33.9969 4.85047 34.0225 4.75976 34.0788C4.73011 34.0987 4.70585 34.1255 4.68911 34.1567C4.67236 34.188 4.66362 34.2229 4.66367 34.2582C4.66575 34.2996 4.67796 34.3399 4.69925 34.3757C4.72055 34.4114 4.7503 34.4416 4.78596 34.4635C4.99455 34.5924 5.21369 34.7038 5.4411 34.7966C5.71541 34.9 5.96019 35.0675 6.15448 35.2847C6.2927 35.4762 6.36283 35.7073 6.35393 35.9422" fill="black"/>
<path d="M9.56196 35.9422C9.56572 36.171 9.50089 36.3957 9.37561 36.5882C9.24238 36.7836 9.05413 36.9363 8.83403 37.0275C8.57285 37.1372 8.2909 37.1906 8.00709 37.184C7.78353 37.188 7.56014 37.1697 7.34031 37.1295C7.1471 37.0873 6.95949 37.0233 6.78125 36.9385V35.9953C6.98483 36.0986 7.19911 36.18 7.42038 36.238C7.61811 36.2926 7.82214 36.3221 8.02748 36.3255C8.15023 36.335 8.27292 36.3064 8.37834 36.2437C8.41318 36.2203 8.44164 36.1888 8.4612 36.152C8.48075 36.1152 8.49079 36.0742 8.49044 36.0327C8.49149 35.9813 8.47566 35.9309 8.44531 35.8891C8.40462 35.8405 8.35528 35.7996 8.29972 35.7685C8.12831 35.675 7.95189 35.5906 7.77124 35.5158C7.56272 35.4295 7.36686 35.3161 7.18889 35.1785C7.06348 35.0777 6.96375 34.9494 6.89772 34.8038C6.8306 34.6453 6.79834 34.4745 6.80309 34.3028C6.79581 34.141 6.82828 33.9799 6.89774 33.8332C6.96719 33.6865 7.07158 33.5585 7.202 33.4601C7.52361 33.2416 7.90984 33.135 8.29972 33.1572C8.73447 33.1637 9.1628 33.2616 9.55614 33.4443L9.23002 34.2583C8.93082 34.1083 8.60291 34.0222 8.26769 34.0056C8.16092 33.9971 8.05421 34.0228 7.96342 34.0788C7.93413 34.099 7.91022 34.1258 7.89374 34.1571C7.87726 34.1883 7.8687 34.223 7.86878 34.2583C7.87094 34.2995 7.88303 34.3396 7.90404 34.3753C7.92505 34.411 7.95439 34.4413 7.98962 34.4636C8.19839 34.5921 8.41751 34.7034 8.64476 34.7966C8.91948 34.8993 9.16444 35.0669 9.35814 35.2847C9.49636 35.4762 9.56649 35.7074 9.55759 35.9422" fill="black"/>
<path d="M14.99 35.0907C14.99 35.7444 14.808 36.2478 14.444 36.601C14.0801 36.9541 13.5671 37.1307 12.9052 37.1307H11.6211V33.2158H12.9954C13.6321 33.2158 14.1237 33.3766 14.4702 33.6982C14.8182 34.0198 14.99 34.4834 14.99 35.0907ZM13.8777 35.128C13.8777 34.7691 13.8064 34.5021 13.6622 34.3298C13.5804 34.2397 13.4786 34.1693 13.3647 34.1242C13.2509 34.0792 13.128 34.0606 13.0056 34.07H12.6941V36.2622H12.9328C13.2589 36.2622 13.4977 36.1703 13.6491 35.9836C13.8005 35.797 13.8777 35.5113 13.8777 35.1223" fill="black"/>
<path d="M18.0563 37.1307H15.6992V33.2158H18.0563V34.0643H16.7722V34.6801H17.9616V35.53H16.7722V36.2679H18.0563V37.1307Z" fill="black"/>
<path d="M21.351 35.9421C21.3551 36.1711 21.2897 36.3961 21.1632 36.5882C21.0302 36.7831 20.8425 36.9358 20.6231 37.0274C20.3614 37.137 20.079 37.1904 19.7947 37.1839C19.5716 37.188 19.3487 37.1697 19.1294 37.1294C18.9361 37.0875 18.7485 37.0234 18.5703 36.9384V35.9953C18.7733 36.0988 18.9871 36.1801 19.208 36.2379C19.4062 36.2926 19.6107 36.322 19.8165 36.3254C19.9393 36.3347 20.0619 36.3061 20.1674 36.2436C20.2018 36.2199 20.2298 36.1883 20.2491 36.1515C20.2684 36.1148 20.2783 36.074 20.278 36.0326C20.2799 35.9811 20.264 35.9305 20.2329 35.889C20.1929 35.8397 20.1435 35.7988 20.0873 35.7684C19.9159 35.6749 19.7395 35.5905 19.5588 35.5158C19.3502 35.4296 19.1544 35.3162 18.9765 35.1784C18.8516 35.0771 18.752 34.9489 18.6853 34.8037C18.6189 34.645 18.5867 34.4744 18.5907 34.3027C18.5834 34.1409 18.6159 33.9798 18.6853 33.8331C18.7548 33.6864 18.8592 33.5584 18.9896 33.46C19.3114 33.2418 19.6975 33.1353 20.0873 33.1571C20.5225 33.1639 20.9512 33.2618 21.3452 33.4442L21.0235 34.2582C20.7248 34.1082 20.3973 34.0221 20.0626 34.0055C19.9558 33.9968 19.849 34.0225 19.7583 34.0787C19.7287 34.0986 19.7044 34.1254 19.6877 34.1567C19.6709 34.188 19.6622 34.2228 19.6622 34.2582C19.6643 34.2996 19.6765 34.3399 19.6978 34.3756C19.7191 34.4114 19.7488 34.4415 19.7845 34.4635C19.9931 34.5923 20.2122 34.7037 20.4396 34.7965C20.714 34.9 20.9587 35.0675 21.153 35.2846C21.2913 35.4761 21.3614 35.7073 21.3525 35.9421" fill="black"/>
<path d="M23.0383 33.2158H21.9609V37.1307H23.0383V33.2158Z" fill="black"/>
<path d="M25.4937 34.8384H27.2072V36.9487C26.7125 37.1107 26.1939 37.1903 25.6727 37.1842C25.0613 37.1842 24.5886 37.0095 24.2547 36.6602C23.9208 36.3109 23.7539 35.8117 23.7539 35.1629C23.7539 34.5312 23.9364 34.0393 24.3013 33.6871C24.6682 33.3368 25.1748 33.1602 25.8387 33.1602C26.0763 33.159 26.3135 33.1821 26.5463 33.2291C26.746 33.269 26.9411 33.3286 27.1286 33.4071L26.7894 34.2369C26.4962 34.0959 26.1737 34.0241 25.8474 34.0273C25.7108 34.0193 25.5741 34.0424 25.448 34.0946C25.3218 34.1469 25.2094 34.227 25.1195 34.3288C24.9331 34.5768 24.8423 34.8821 24.8633 35.1901C24.8427 35.4864 24.9242 35.7809 25.0948 36.0256C25.1755 36.1222 25.2783 36.1985 25.3947 36.2484C25.5111 36.2983 25.6378 36.3203 25.7645 36.3128C25.9113 36.3135 26.0578 36.2981 26.2012 36.2668V35.6538H25.4922L25.4937 34.8384Z" fill="black"/>
<path d="M31.7931 37.1307H30.3867L28.9308 34.3729H28.9061C28.941 34.8065 28.9585 35.1376 28.9585 35.3663V37.1307H28.0078V33.2158H29.4084L30.8526 35.9363H30.87C30.8438 35.5429 30.8307 35.2261 30.8307 34.9859V33.2158H31.7931V37.1307Z" fill="black"/>
<path d="M6.38077 43.7119L6.18569 42.9783H4.89579L4.69488 43.7119H3.51562L4.81135 39.7812H6.24247L7.55275 43.7119H6.38077ZM5.96294 42.1098L5.7926 41.4681C5.75184 41.3245 5.70379 41.1408 5.64702 40.9125C5.59024 40.6842 5.55238 40.5249 5.53346 40.4258C5.51744 40.5177 5.48542 40.667 5.43737 40.8766C5.38933 41.0862 5.28305 41.4968 5.11854 42.1098H5.96294Z" fill="black"/>
<path d="M12.2693 43.7112H11.0012L10.6198 42.0043C10.6023 41.9339 10.5732 41.7918 10.5354 41.5736C10.4975 41.3554 10.4669 41.1845 10.4495 41.041C10.4349 41.1573 10.4116 41.3008 10.3796 41.4717C10.3475 41.6425 10.3141 41.8033 10.282 41.9468C10.25 42.0904 10.119 42.6776 9.88749 43.704H8.61943L7.63672 39.7935H8.67038L9.10715 41.7559C9.2042 42.1895 9.27117 42.535 9.30806 42.7924C9.33135 42.6106 9.37308 42.3632 9.43326 42.0502C9.49441 41.7387 9.55119 41.476 9.6036 41.2736L9.95446 39.7935H10.9474L11.288 41.2736C11.3448 41.5119 11.4045 41.7861 11.4642 42.0961C11.5239 42.4062 11.5632 42.6388 11.5836 42.7924C11.6069 42.5943 11.6709 42.2498 11.7758 41.7617L12.2125 39.7935H13.2476L12.2693 43.7112Z" fill="black"/>
<path d="M16.1957 43.7119L16.0006 42.9783H14.7107L14.5098 43.7119H13.332L14.6278 39.7812H16.0589L17.3692 43.7119H16.1957ZM15.7793 42.1098L15.609 41.4681C15.5682 41.3245 15.5202 41.1408 15.4634 40.9125C15.4066 40.6842 15.3688 40.5249 15.3513 40.4258C15.3338 40.5177 15.3018 40.667 15.2552 40.8766C15.2086 41.0862 15.0995 41.4968 14.9349 42.1098H15.7793Z" fill="black"/>
<path d="M18.8698 42.2871V43.7112H17.7969V39.7935H19.097C20.1753 39.7935 20.7149 40.1792 20.7159 40.9505C20.7159 41.4042 20.4902 41.7545 20.0418 42.0014L21.1992 43.7083H19.9821L19.1406 42.2842L18.8698 42.2871ZM18.8698 41.4903H19.0693C19.4449 41.4903 19.6327 41.3281 19.6327 41.0008C19.6327 40.7309 19.4478 40.5974 19.081 40.5974H18.8698V41.4903Z" fill="black"/>
<path d="M24.9314 41.6698C24.9314 42.3244 24.7508 42.8269 24.3854 43.18C24.02 43.5332 23.5119 43.7112 22.8466 43.7112H21.5625V39.7935H22.9368C23.5726 39.7935 24.0642 39.9542 24.4116 40.2758C24.7596 40.596 24.9314 41.0611 24.9314 41.6669V41.6698ZM23.8191 41.7057C23.8191 41.3468 23.7478 41.0798 23.6022 40.9075C23.5207 40.8173 23.4191 40.747 23.3055 40.7019C23.1918 40.6568 23.0692 40.6382 22.947 40.6476H22.6355V42.8398H22.8742C23.2004 42.8398 23.4391 42.7479 23.5905 42.5527C23.7419 42.3574 23.8191 42.0818 23.8191 41.6985" fill="black"/>
<path d="M28.2402 42.5223C28.2447 42.7511 28.1798 42.9761 28.0538 43.1683C27.9202 43.3633 27.7321 43.5159 27.5123 43.6076C27.2511 43.7173 26.9691 43.7707 26.6853 43.7641C26.4623 43.7675 26.2394 43.7492 26.02 43.7095C25.8265 43.6677 25.6388 43.6031 25.4609 43.5172V42.5754C25.6642 42.6783 25.8779 42.7596 26.0986 42.818C26.2969 42.8724 26.5014 42.9013 26.7072 42.9042C26.8292 42.9131 26.9511 42.8851 27.0566 42.8238C27.0913 42.8003 27.1197 42.7688 27.1393 42.732C27.1588 42.6952 27.1689 42.6543 27.1687 42.6127C27.1697 42.5613 27.1539 42.511 27.1235 42.4692C27.0829 42.4201 27.0336 42.3788 26.978 42.3472C26.9124 42.307 26.7363 42.2223 26.4495 42.0959C26.2409 42.0096 26.0451 41.8962 25.8671 41.7586C25.7417 41.6578 25.642 41.5295 25.576 41.3839C25.5097 41.2251 25.4774 41.0545 25.4813 40.8828C25.474 40.7211 25.5065 40.56 25.576 40.4133C25.6454 40.2665 25.7498 40.1385 25.8802 40.0401C26.2018 39.8217 26.5881 39.7151 26.978 39.7372C27.4127 39.7438 27.841 39.8416 28.2344 40.0244L27.9068 40.8398C27.6077 40.691 27.2805 40.6054 26.9459 40.5885C26.8391 40.5798 26.7324 40.6055 26.6416 40.6618C26.6121 40.6814 26.5879 40.708 26.5712 40.739C26.5544 40.77 26.5456 40.8046 26.5456 40.8398C26.5475 40.8812 26.5595 40.9217 26.5805 40.9576C26.6015 40.9936 26.631 41.0241 26.6664 41.0465C26.8763 41.1736 27.0958 41.2845 27.323 41.3781C27.5973 41.4816 27.8417 41.6496 28.0349 41.8677C28.1738 42.0588 28.244 42.2902 28.2344 42.5252" fill="black"/>
</svg>
