<svg width="226" height="86" viewBox="0 0 226 86" fill="none" xmlns="http://www.w3.org/2000/svg">
<path d="M17.3021 53.7418L17.0556 53.6015L16.8088 53.7411L0.5 62.9619V1.50391H33.5V62.9592L17.3021 53.7418Z" stroke="#C19F63"/>
<path d="M18.2188 43.1592H16.8628C16.7867 42.8814 16.7361 42.5971 16.7118 42.31C16.2406 42.946 15.4062 43.3074 14.2086 43.3074C11.7197 43.3074 10.3242 41.4065 10.3242 38.9708C10.3242 36.3833 11.8312 34.4319 14.5322 34.4319C16.737 34.4319 18.0425 35.6823 18.2403 37.1459H16.3881C16.2119 36.5713 15.7659 35.881 14.5071 35.881C12.7411 35.881 12.2412 37.3699 12.2412 38.8805C12.2412 40.3911 12.8131 41.833 14.5179 41.833C16.0968 41.833 16.3953 40.7199 16.3953 39.9574V39.8707H14.5215V38.3312H18.2188V43.1592Z" fill="white"/>
<path d="M19.8242 38.4427C19.8242 37.7922 19.8242 37.2285 19.8242 36.6792H21.5794C21.6045 36.8273 21.6297 37.467 21.6297 37.8175C21.9174 37.0948 22.6008 36.5418 23.6978 36.531V38.2476C22.403 38.2078 21.6297 38.5583 21.6297 40.3363V43.1623H19.8314L19.8242 38.4427Z" fill="white"/>
<path opacity="0.7" d="M17.5137 76.7441C17.2324 76.7441 16.9922 76.7852 16.793 76.8672L18.6562 73.9844H17.3379L14.9355 77.7051L14.7773 77.9453C14.666 78.1094 14.5547 78.3496 14.4434 78.666C14.3262 78.9883 14.2734 79.3105 14.2734 79.6328C14.2734 80.418 14.5605 81.0918 15.1465 81.6602C15.7324 82.2227 16.4414 82.5098 17.2734 82.5098C18.1055 82.5098 18.8086 82.2227 19.3945 81.6602C19.9805 81.0918 20.2734 80.418 20.2734 79.6328C20.2734 78.8535 19.9922 78.1797 19.4355 77.6055C18.8789 77.0312 18.2402 76.7441 17.5137 76.7441ZM19.0781 79.627C19.0781 80.1074 18.9023 80.5176 18.5508 80.8574C18.1992 81.1973 17.7773 81.3672 17.2734 81.3672C16.7695 81.3672 16.3418 81.1973 15.9961 80.8574C15.6445 80.5176 15.4746 80.1074 15.4746 79.627C15.4746 79.1465 15.6445 78.7363 15.9961 78.3965C16.3418 78.0566 16.7695 77.8867 17.2734 77.8867C17.7773 77.8867 18.1992 78.0566 18.5508 78.3965C18.9023 78.7363 19.0781 79.1465 19.0781 79.627Z" fill="white"/>
<path d="M209.801 52.212L209.554 52.0718L209.307 52.2114L193.5 61.1486V1.53809H225.5V61.1459L209.801 52.212Z" stroke="#9C9C9C"/>
<path d="M209.43 38.5874L216 35.4441L209.43 32.0215L203 35.3044L209.43 38.5874Z" fill="white"/>
<path d="M206.164 38.5874V41.102L209.431 42.9181L212.873 41.102V38.5874L209.431 40.2638L206.164 38.5874Z" fill="white"/>
<path opacity="0.7" d="M212.273 82.4209V81.2197H208.195C208.348 80.9268 208.564 80.6455 208.846 80.376C209.127 80.1064 209.42 79.8779 209.713 79.6846C210.006 79.4971 210.305 79.2861 210.615 79.0518C210.926 78.8174 211.201 78.5947 211.441 78.3721C211.682 78.1494 211.881 77.874 212.039 77.5459C212.191 77.2178 212.273 76.8662 212.273 76.4795C212.273 75.7529 212.01 75.1436 211.482 74.6455C210.955 74.1533 210.275 73.9014 209.455 73.9014C209.033 73.9014 208.658 73.9717 208.318 74.1123C207.979 74.2529 207.715 74.4111 207.539 74.5752C207.357 74.7451 207.199 74.9385 207.064 75.1553C206.93 75.3779 206.848 75.5303 206.818 75.6123C206.789 75.7002 206.766 75.7705 206.754 75.8232L207.832 76.3037L207.873 76.1807C207.902 76.0986 207.961 75.9932 208.043 75.876C208.125 75.7588 208.225 75.6475 208.336 75.5303C208.447 75.4131 208.605 75.3135 208.805 75.2314C209.004 75.1494 209.221 75.1025 209.449 75.1025C209.924 75.1025 210.293 75.2256 210.557 75.4717C210.82 75.7178 210.949 76.0576 210.949 76.4795C210.949 76.7783 210.873 77.0537 210.715 77.3057C210.562 77.5576 210.357 77.7744 210.105 77.9619C209.854 78.1494 209.578 78.3428 209.273 78.5361C208.975 78.7295 208.676 78.9404 208.371 79.1748C208.066 79.4092 207.791 79.667 207.539 79.9482C207.287 80.2295 207.082 80.5869 206.924 81.0088C206.771 81.4307 206.689 81.9053 206.689 82.4209H212.273Z" fill="white"/>
<path opacity="0.7" d="M165.273 81.4209V80.2197H161.195C161.348 79.9268 161.564 79.6455 161.846 79.376C162.127 79.1064 162.42 78.8779 162.713 78.6846C163.006 78.4971 163.305 78.2861 163.615 78.0518C163.926 77.8174 164.201 77.5947 164.441 77.3721C164.682 77.1494 164.881 76.874 165.039 76.5459C165.191 76.2178 165.273 75.8662 165.273 75.4795C165.273 74.7529 165.01 74.1436 164.482 73.6455C163.955 73.1533 163.275 72.9014 162.455 72.9014C162.033 72.9014 161.658 72.9717 161.318 73.1123C160.979 73.2529 160.715 73.4111 160.539 73.5752C160.357 73.7451 160.199 73.9385 160.064 74.1553C159.93 74.3779 159.848 74.5303 159.818 74.6123C159.789 74.7002 159.766 74.7705 159.754 74.8232L160.832 75.3037L160.873 75.1807C160.902 75.0986 160.961 74.9932 161.043 74.876C161.125 74.7588 161.225 74.6475 161.336 74.5303C161.447 74.4131 161.605 74.3135 161.805 74.2314C162.004 74.1494 162.221 74.1025 162.449 74.1025C162.924 74.1025 163.293 74.2256 163.557 74.4717C163.82 74.7178 163.949 75.0576 163.949 75.4795C163.949 75.7783 163.873 76.0537 163.715 76.3057C163.562 76.5576 163.357 76.7744 163.105 76.9619C162.854 77.1494 162.578 77.3428 162.273 77.5361C161.975 77.7295 161.676 77.9404 161.371 78.1748C161.066 78.4092 160.791 78.667 160.539 78.9482C160.287 79.2295 160.082 79.5869 159.924 80.0088C159.771 80.4307 159.689 80.9053 159.689 81.4209H165.273Z" fill="white"/>
<g clip-path="url(#clip0)">
<path d="M162.3 53.0465L162.056 52.9094L161.811 53.0458L145.5 62.1484V1.5H178.5V62.1457L162.3 53.0465Z" stroke="#FF7F18"/>
<path d="M166.716 35.3719C166.716 35.2631 166.771 35.2631 166.825 35.2631H168.69C168.8 35.2631 168.8 35.3175 168.8 35.3719V44.6175C168.8 44.7263 168.745 44.7263 168.69 44.7263H166.825C166.716 44.7263 166.661 44.6719 166.661 44.5631L166.716 35.3719ZM166.606 32.707C166.606 31.9456 167.1 31.5105 167.813 31.5105C168.525 31.5105 169.019 32 169.019 32.707C169.019 33.4684 168.525 33.9035 167.813 33.9035C167.045 33.9035 166.606 33.4684 166.606 32.707ZM161.232 39.2333C160.903 37.928 160.135 35.1 159.806 33.7403C159.532 35.1 158.929 37.4386 158.435 39.2333H161.232ZM157.996 41.1368L157.064 44.6719C157.009 44.7807 157.009 44.7807 156.9 44.7807H155.145C155.035 44.7807 155.035 44.7263 155.035 44.6175L158.38 32.9789C158.435 32.7614 158.49 32.5982 158.49 32C158.49 31.8912 158.545 31.8912 158.6 31.8912H161.067C161.177 31.8912 161.177 31.9456 161.177 32L164.906 44.6175C164.961 44.7263 164.906 44.7807 164.796 44.7807H162.822C162.713 44.7807 162.658 44.7263 162.658 44.6719L161.78 41.2456H157.996V41.1368Z" fill="#FF7F18"/>
</g>
<path d="M65.3523 53.8983L65.1058 53.758L64.859 53.8976L48.5 63.1468V1.50391H81.6001V63.1441L65.3523 53.8983Z" stroke="#C19F63"/>
<path d="M63.6496 35.5448H62.3967V41.8448H63.6496V43.3327H59.125V41.8448H60.3818V35.5448H59.125V34.053H63.6496V35.5448Z" fill="white"/>
<path d="M64.6602 38.2147C64.6602 37.6333 64.6602 36.9983 64.6602 36.4819H66.5493C66.5886 36.6656 66.6161 37.1437 66.6318 37.3541C66.8636 36.9295 67.4174 36.3213 68.6703 36.3213C70.0842 36.3213 70.9954 37.2623 70.9954 38.9989V43.3366H69.0355V39.194C69.0355 38.4289 68.7763 37.8552 67.9083 37.8552C67.0403 37.8552 66.624 38.3065 66.624 39.5229V43.3481H64.6602V38.2147Z" fill="white"/>
<path opacity="0.7" d="M62.0527 73.9844V75.1855H66.2539L62.7734 82.3867H64.0977L67.6367 75.0684V73.9844H62.0527Z" fill="white"/>
<path opacity="0.7" d="M115.896 76.9795L116.014 76.9092C116.096 76.874 116.189 76.8037 116.295 76.71C116.4 76.6162 116.512 76.499 116.623 76.3643C116.74 76.2354 116.834 76.0596 116.916 75.8486C116.998 75.6377 117.033 75.415 117.033 75.1865C117.033 74.5127 116.799 73.9619 116.33 73.54C115.861 73.1182 115.217 72.9072 114.391 72.9072C114.057 72.9072 113.734 72.9482 113.424 73.042C113.107 73.1357 112.855 73.2354 112.668 73.3408C112.475 73.4463 112.293 73.5752 112.123 73.7217C111.959 73.874 111.848 73.9736 111.801 74.0322C111.754 74.0908 111.713 74.1318 111.689 74.1611L112.533 74.999L112.732 74.7705C112.861 74.6299 113.084 74.4834 113.395 74.3311C113.711 74.1787 114.039 74.1025 114.391 74.1025C114.807 74.1025 115.129 74.2139 115.363 74.4248C115.598 74.6416 115.715 74.9346 115.715 75.3037C115.715 75.6729 115.598 75.9658 115.363 76.1768C115.129 76.3936 114.807 76.499 114.391 76.499H113.553V77.7002H114.391C114.912 77.7002 115.322 77.8291 115.621 78.0811C115.926 78.333 116.072 78.6494 116.072 79.0244C116.072 79.3994 115.926 79.7158 115.621 79.9678C115.322 80.2197 114.912 80.3428 114.391 80.3428C114.121 80.3428 113.857 80.3135 113.611 80.2432C113.365 80.1729 113.166 80.0967 113.014 80.0146C112.861 79.9326 112.721 79.833 112.58 79.7217C112.445 79.6104 112.357 79.5342 112.316 79.4873C112.275 79.4404 112.246 79.4053 112.229 79.3818L111.391 80.2197L111.508 80.3662C111.584 80.4541 111.701 80.5596 111.865 80.6885C112.029 80.8174 112.229 80.9463 112.451 81.0752C112.674 81.2041 112.961 81.3096 113.301 81.4033C113.646 81.4971 114.01 81.5439 114.391 81.5439C115.293 81.5439 116.02 81.3037 116.57 80.8291C117.121 80.3545 117.391 79.7744 117.391 79.0889C117.391 78.7842 117.338 78.5029 117.232 78.2451C117.127 77.9873 117.004 77.7881 116.869 77.6416C116.74 77.501 116.588 77.3721 116.412 77.2607C116.242 77.1494 116.125 77.0791 116.055 77.0498C115.984 77.0205 115.932 76.9971 115.896 76.9795Z" fill="white"/>
<g clip-path="url(#clip1)">
<path d="M114.3 53.0465L114.056 52.9094L113.811 53.0458L97.5 62.1484V1.5H130.5V62.1457L114.3 53.0465Z" stroke="#EFCDE6"/>
<path d="M105.502 32.1632C105.611 32.3807 105.721 32.5983 105.776 32.707C105.94 32.979 106.05 33.2509 106.215 33.5228L108.463 37.9825C108.518 38.0912 108.628 38.2544 108.573 38.4176L105.392 44.4C105.337 44.5632 105.173 44.7263 105.447 44.7263H107.311C107.586 44.7263 107.586 44.5632 107.75 44.2369L109.889 39.7772C110.053 39.886 111.808 43.693 112.192 44.5088C112.247 44.6719 112.302 44.672 112.521 44.672C112.85 44.672 114.495 44.7263 114.66 44.6176C114.715 44.4544 114.386 43.9649 114.276 43.8018L113.453 42.2246C112.795 40.9737 112.028 39.4509 111.37 38.2544C111.26 38.0369 111.26 38.0369 111.589 37.4386C111.753 37.1667 111.863 36.8948 112.028 36.6228C112.137 36.3509 112.302 36.1333 112.411 35.8614L113.673 33.4684C113.782 33.2509 114.331 32.2719 114.44 31.9456C114.495 31.8369 114.276 31.8369 114.166 31.8369H112.521C112.357 31.8369 112.302 31.8912 112.247 32L110.602 35.4263C110.547 35.5895 110.108 36.6228 109.999 36.6772C109.834 36.2421 109.615 35.8614 109.45 35.4263L108.244 32.9246C108.134 32.707 108.079 32.4895 107.97 32.3263C107.915 32.2176 107.86 32.1088 107.805 32C107.75 31.8369 107.75 31.7825 107.531 31.7825H105.611C105.392 31.8912 105.392 31.8912 105.502 32.1632Z" fill="#EFCDE6"/>
<path d="M117.291 40.1043C117.291 39.3429 117.346 38.5815 117.785 37.9289C117.894 37.7657 118.004 37.6026 118.114 37.4938C118.662 37.0043 119.54 36.678 120.472 36.9499V42.8236C118.662 43.4219 117.291 42.2797 117.291 40.1043ZM120.527 35.1008H119.759C118.278 35.1008 117.072 35.8078 116.414 36.4605C115.756 37.1675 115.098 38.4727 115.098 39.8324C115.098 41.3552 115.372 42.4973 116.249 43.4762C116.852 44.1833 118.004 44.7815 119.375 44.7815C120.088 44.7815 120.636 44.7271 121.349 44.564C121.678 44.4552 122.501 44.2376 122.72 44.0201C122.72 43.9113 122.665 43.5306 122.665 43.3131C122.665 42.6061 122.665 41.6815 122.665 40.9745V32.0552C122.665 31.892 122.665 31.8376 122.501 31.8376H120.691C120.417 31.8376 120.527 32.0008 120.527 32.4903V35.1008Z" fill="#EFCDE6"/>
</g>
<defs>
<clipPath id="clip0">
<rect width="34" height="62" fill="white" transform="translate(145 0.420898)"/>
</clipPath>
<clipPath id="clip1">
<rect width="34" height="62" fill="white" transform="translate(97 0.420898)"/>
</clipPath>
</defs>
</svg>
