<svg width="43" height="19" viewBox="0 0 43 19" fill="none" xmlns="http://www.w3.org/2000/svg">
<path d="M9.35759 14V12.0764H2.82668V0.544072H0.715394V14H9.35759ZM18.3001 9.39271C18.3001 10.256 18.0092 10.9785 17.4462 11.5697C16.8738 12.1702 16.1982 12.4611 15.4193 12.4611C14.6311 12.4611 13.9555 12.1702 13.3831 11.5697C12.8107 10.9785 12.5292 10.256 12.5292 9.39271C12.5292 8.52942 12.8107 7.8069 13.3831 7.20635C13.9555 6.61519 14.6311 6.31492 15.4193 6.31492C16.1982 6.31492 16.8738 6.61519 17.4462 7.20635C18.0092 7.8069 18.3001 8.52942 18.3001 9.39271ZM10.615 9.39271C10.615 10.6876 11.0842 11.8043 12.0413 12.7614C12.9984 13.7185 14.1244 14.1971 15.4193 14.1971C16.7143 14.1971 17.8309 13.7185 18.788 12.7614C19.7451 11.8043 20.2237 10.6876 20.2237 9.39271C20.2237 8.09778 19.7451 6.97176 18.788 6.01465C17.8309 5.05753 16.7143 4.57897 15.4193 4.57897C14.1244 4.57897 12.9984 5.05753 12.0413 6.01465C11.0842 6.97176 10.615 8.09778 10.615 9.39271ZM28.8659 13.4464C28.8659 14.2909 28.6125 14.9853 28.1058 15.5107C27.5991 16.0456 26.961 16.3083 26.1822 16.3083C25.8256 16.3083 25.4878 16.2614 25.1688 16.1582C24.8404 16.055 24.5776 15.9424 24.3712 15.811C24.1647 15.6796 23.9677 15.5389 23.78 15.37C23.5923 15.2011 23.4797 15.0885 23.4234 15.0228C23.3671 14.9571 23.3202 14.9008 23.3015 14.8633L22.0441 16.1113L22.2036 16.3083C22.2974 16.4491 22.4663 16.6086 22.7009 16.7963C22.9261 16.984 23.1982 17.1716 23.5079 17.3593C23.8082 17.547 24.2023 17.7065 24.6808 17.8378C25.15 17.9692 25.6567 18.0349 26.1822 18.0349C27.4771 18.0349 28.5656 17.5939 29.457 16.7024C30.3391 15.8204 30.7895 14.7225 30.7895 13.4276V4.77603H28.8659V5.73314L28.5468 5.45164C28.3404 5.26397 28.0026 5.06692 27.5428 4.86986C27.0736 4.68219 26.5857 4.57897 26.079 4.57897C24.9154 4.57897 23.902 5.02938 23.0481 5.9302C22.1848 6.83101 21.7626 7.9195 21.7626 9.19565C21.7626 10.4812 22.1848 11.5697 23.0481 12.4705C23.902 13.3713 24.9154 13.8123 26.079 13.8123C26.398 13.8123 26.7171 13.7748 27.0361 13.6903C27.3457 13.6059 27.6085 13.5121 27.8149 13.4088C28.0214 13.3056 28.209 13.193 28.3873 13.0617C28.5656 12.9303 28.6876 12.8364 28.7439 12.7801L28.8659 12.6582V13.4464ZM23.6768 9.19565C23.6768 8.38867 23.9302 7.71306 24.4556 7.15005C24.9717 6.59642 25.5816 6.31492 26.276 6.31492C26.9704 6.31492 27.5709 6.59642 28.087 7.15005C28.6031 7.71306 28.8659 8.38867 28.8659 9.19565C28.8659 10.0026 28.6031 10.6876 28.087 11.2413C27.5709 11.8043 26.9704 12.0764 26.276 12.0764C25.5816 12.0764 24.9717 11.8043 24.4556 11.2413C23.9302 10.6876 23.6768 10.0026 23.6768 9.19565ZM40.5952 9.39271C40.5952 10.256 40.3043 10.9785 39.7413 11.5697C39.1689 12.1702 38.4933 12.4611 37.7145 12.4611C36.9263 12.4611 36.2507 12.1702 35.6783 11.5697C35.1059 10.9785 34.8244 10.256 34.8244 9.39271C34.8244 8.52942 35.1059 7.8069 35.6783 7.20635C36.2507 6.61519 36.9263 6.31492 37.7145 6.31492C38.4933 6.31492 39.1689 6.61519 39.7413 7.20635C40.3043 7.8069 40.5952 8.52942 40.5952 9.39271ZM32.9102 9.39271C32.9102 10.6876 33.3793 11.8043 34.3364 12.7614C35.2936 13.7185 36.4196 14.1971 37.7145 14.1971C39.0094 14.1971 40.1261 13.7185 41.0832 12.7614C42.0403 11.8043 42.5189 10.6876 42.5189 9.39271C42.5189 8.09778 42.0403 6.97176 41.0832 6.01465C40.1261 5.05753 39.0094 4.57897 37.7145 4.57897C36.4196 4.57897 35.2936 5.05753 34.3364 6.01465C33.3793 6.97176 32.9102 8.09778 32.9102 9.39271Z" fill="white"/>
</svg>
