<svg width="59" height="23" viewBox="0 0 59 23" fill="none" xmlns="http://www.w3.org/2000/svg">
<path d="M34.236 20.7248C34.236 19.9474 34.857 19.3255 35.6333 19.3255C36.4096 19.3255 37.0307 19.9474 37.0307 20.7248C37.0307 21.5021 36.4096 22.124 35.6333 22.124C34.857 22.0463 34.236 21.5021 34.236 20.7248Z" fill="black"/>
<path d="M55.1955 7.66436C55.1955 6.88699 55.8166 6.26509 56.5929 6.26509C57.3692 6.26509 57.9902 6.88699 57.9902 7.66436C57.9902 8.44174 57.3692 9.06364 56.5929 9.06364C55.8166 8.9859 55.1955 8.364 55.1955 7.66436Z" fill="black"/>
<path d="M49.529 15.5939C49.529 14.8166 50.15 14.1947 50.9263 14.1947C51.7026 14.1947 52.3237 14.8166 52.3237 15.5939C52.3237 16.3713 51.7026 16.9932 50.9263 16.9932C50.15 16.9155 49.529 16.2936 49.529 15.5939Z" fill="black"/>
<path d="M34.623 8.44186C33.9244 7.12033 33.148 6.73164 32.7599 6.57616H38.9703C38.5045 6.73164 37.8059 6.88711 37.8059 7.74223C37.8059 7.97544 37.8835 8.28639 38.1164 8.75281L40.6006 14.2722L39.048 17.3039L34.623 8.44186Z" fill="black"/>
<path d="M43.5506 7.97569C43.5506 6.96511 42.7743 6.65416 42.2309 6.49868H45.8796C45.1809 6.73189 44.3269 7.12058 43.473 8.67533C43.5506 8.44212 43.5506 8.20891 43.5506 7.97569Z" fill="black"/>
<path d="M55.9724 15.2052C55.9724 13.8059 54.7303 13.2617 52.9448 12.4066C51.0817 11.5515 49.6067 10.8519 49.6067 9.21939C49.6067 7.50917 51.237 6.18763 53.954 6.10989C53.1001 6.3431 52.4014 7.12048 52.4014 8.2088C52.4014 9.53034 53.4106 9.99677 55.3514 10.8519C57.2145 11.707 59 12.4844 59 14.2723C59 16.449 56.5935 17.3041 54.3422 17.3818C55.2737 17.0709 55.9724 16.2158 55.9724 15.2052Z" fill="black"/>
<path d="M17.6223 2.37841C17.6223 1.5233 17.0789 0.901398 16.2249 0.668186L20.5723 0.124023V17.2263C20.5723 17.2263 19.0196 17.304 17.6223 18.4701V2.37841Z" fill="black"/>
<path d="M29.1114 11.8622C29.1114 8.90816 26.6272 6.42056 23.4443 6.26509C25.3075 6.57604 25.9285 9.76327 25.9285 11.8622C25.9285 13.9611 25.3075 17.0706 23.4443 17.4593C26.6272 17.3038 29.1114 14.8162 29.1114 11.8622Z" fill="black"/>
<path d="M12.4987 11.8622C12.4987 8.90816 10.0145 6.42056 6.83165 6.26509C8.69477 6.57604 9.31582 9.76327 9.31582 11.8622C9.31582 13.9611 8.69477 17.0706 6.83165 17.4593C10.0145 17.3038 12.4987 14.8162 12.4987 11.8622Z" fill="black"/>
<path d="M0 11.8622C0 8.90816 2.48417 6.42056 5.66702 6.26509C3.80389 6.57604 3.18285 9.76327 3.18285 11.8622C3.18285 13.9611 3.80389 17.0706 5.66702 17.4593C2.48417 17.3038 0 14.8162 0 11.8622Z" fill="black"/>
</svg>
