<svg width="152" height="40" viewBox="0 0 152 40" fill="none" xmlns="http://www.w3.org/2000/svg">
<path d="M75.3158 16.3461H69.4258V0.615349H75.3158C80.4078 0.615349 83.5238 3.49996 83.5238 8.49996C83.5238 13.4615 80.4078 16.3461 75.3158 16.3461ZM74.5178 12.2307H75.3918C77.1398 12.2307 78.3558 11.2307 78.3558 8.49996C78.3558 5.76919 77.1018 4.7692 75.3918 4.7692H74.5178V12.2307Z" fill="#000"/>
<path d="M85.5762 0.615349H96.7102V4.57689H90.7062V6.30766H95.9122V10.2692H90.7062V12.423H96.9002V16.3846H85.5762V0.615349Z" fill="#000"/>
<path d="M101.877 11.3462C102.675 12.2308 103.739 12.8077 104.841 12.8077C105.791 12.8077 106.323 12.5 106.323 11.9231C106.323 11.3462 105.905 11.0385 103.359 10.2308C100.509 9.34615 99.0652 7.76923 99.0652 5.23077C99.0652 2.26923 101.345 0.384613 104.879 0.384613C107.311 0.384613 109.515 1.23077 110.921 3L107.729 5.23077C107.197 4.57692 106.361 4.19231 105.563 4.19231C104.689 4.19231 104.195 4.46154 104.195 5.03846C104.195 5.73077 104.727 6.03846 107.121 6.80769C110.161 7.80769 111.491 9.15384 111.491 11.6923C111.491 14.7308 108.945 16.6923 105.069 16.6923C102.219 16.6923 100.053 15.6538 98.5332 13.7692L101.877 11.3462Z" fill="#000"/>
<path d="M118.749 0.615349V16.3461H113.619V0.615349H118.749Z" fill="#000"/>
<path d="M128.78 0.346138C131.82 0.346138 134.48 1.69229 135.924 4.42306L131.63 6.34614C131.174 5.26922 130.224 4.53845 128.97 4.53845C127.374 4.53845 126.006 5.84614 126.006 8.49998C126.006 11.2308 127.412 12.4615 129.046 12.4615C129.92 12.4615 130.756 12.1538 131.136 11.6154V10.6538H128.742V7.26922H135.924V13.5769C134.404 15.5 132.048 16.6923 129.008 16.6923C124.334 16.6923 120.914 13.8077 120.914 8.53845C120.876 3.42306 124.144 0.346138 128.78 0.346138Z" fill="#000"/>
<path d="M138.016 0.615349H143.032L146.87 8.15381V0.615349H151.848V16.3461H146.832L142.994 8.80766V16.3461H138.016V0.615349Z" fill="#000"/>
<path d="M3.53346 34.3846C4.33146 35.2692 5.39545 35.8461 6.49745 35.8461C7.44745 35.8461 7.97945 35.5385 7.97945 34.9615C7.97945 34.3846 7.56145 34.0769 5.01545 33.2692C2.16545 32.3846 0.721454 30.8077 0.721454 28.2692C0.721454 25.3077 3.00145 23.4231 6.53545 23.4231C8.96745 23.4231 11.1715 24.2692 12.5775 26.0385L9.38545 28.2692C8.85345 27.6154 8.01745 27.2308 7.21945 27.2308C6.34545 27.2308 5.85145 27.5 5.85145 28.0769C5.85145 28.7692 6.38345 29.0769 8.77745 29.8461C11.8175 30.8461 13.1475 32.1923 13.1475 34.7308C13.1475 37.7692 10.6015 39.7308 6.72545 39.7308C3.87545 39.7308 1.70945 38.6923 0.189453 36.8077L3.53346 34.3846Z" fill="#000"/>
<path d="M22.7243 23.3846C25.7643 23.3846 28.4243 24.7307 29.8683 27.4615L25.5743 29.3846C25.1183 28.3077 24.1683 27.5769 22.9143 27.5769C21.3183 27.5769 19.9503 28.8846 19.9503 31.5384C19.9503 34.1923 21.3183 35.5 22.9143 35.5C24.1303 35.5 25.0803 34.7692 25.5743 33.6923L29.8683 35.6154C28.4243 38.3461 25.7263 39.6923 22.6863 39.6923C18.0503 39.6923 14.8203 36.6154 14.8203 31.5384C14.8203 26.4615 18.0883 23.3846 22.7243 23.3846Z" fill="#000"/>
<path d="M31.8809 23.6538H36.9729V29.1154H40.8109V23.6538H45.9029V39.3846H40.8109V33.2307H36.9729V39.3846H31.8809V23.6538Z" fill="#000"/>
<path d="M55.8223 23.3846C60.6103 23.3846 63.5743 26.8077 63.5743 31.5384C63.5743 36.2307 60.6103 39.6923 55.8223 39.6923C51.0343 39.6923 48.0703 36.2692 48.0703 31.5384C48.0703 26.8077 51.0343 23.3846 55.8223 23.3846ZM55.8223 35.4615C57.4563 35.4615 58.4063 33.9615 58.4063 31.5C58.4063 29.0384 57.4183 27.5384 55.8223 27.5384C54.1883 27.5384 53.2383 29.0384 53.2383 31.5C53.2383 34 54.1883 35.4615 55.8223 35.4615Z" fill="#000"/>
<path d="M73.4532 23.3846C78.2412 23.3846 81.2052 26.8077 81.2052 31.5384C81.2052 36.2307 78.2412 39.6923 73.4532 39.6923C68.6652 39.6923 65.7012 36.2692 65.7012 31.5384C65.7012 26.8077 68.6652 23.3846 73.4532 23.3846ZM73.4532 35.4615C75.0872 35.4615 76.0372 33.9615 76.0372 31.5C76.0372 29.0384 75.0492 27.5384 73.4532 27.5384C71.8192 27.5384 70.8692 29.0384 70.8692 31.5C70.8312 34 71.8192 35.4615 73.4532 35.4615Z" fill="#000"/>
<path d="M83.2578 23.6538H88.3498V35.2692H94.4678V39.423H83.2578V23.6538Z" fill="#000"/>
<path d="M115.939 38.5384L106.401 23.5769H105.869V38.6154L95.0768 23.5769H94.4688L105.945 39.5384C106.021 39.6154 106.135 39.6538 106.211 39.6154C106.325 39.5769 106.363 39.5 106.363 39.3846V24.423L115.977 39.5C116.015 39.5769 116.091 39.6154 116.167 39.6154C116.205 39.6154 116.205 39.6154 116.243 39.6154C116.357 39.5769 116.433 39.5 116.433 39.3846V23.5769H115.939V38.5384Z" fill="#000"/>
<path d="M133.648 38.5384L124.11 23.5769H123.578V38.6154L112.786 23.5769H112.178L123.654 39.5384C123.73 39.6154 123.844 39.6538 123.92 39.6154C124.034 39.5769 124.072 39.5 124.072 39.3846V24.423L133.686 39.5C133.724 39.5769 133.8 39.6154 133.876 39.6154C133.914 39.6154 133.914 39.6154 133.952 39.6154C134.066 39.5769 134.142 39.5 134.142 39.3846V23.5769H133.648V38.5384Z" fill="#000"/>
<path d="M151.355 23.5769V38.5384L141.817 23.5769H141.285V38.6154L130.493 23.5769H129.885L141.361 39.5384C141.437 39.6154 141.551 39.6538 141.627 39.6154C141.741 39.5769 141.779 39.5 141.779 39.3846V24.423L151.393 39.5C151.431 39.5769 151.507 39.6154 151.583 39.6154C151.621 39.6154 151.621 39.6154 151.659 39.6154C151.773 39.5769 151.849 39.5 151.849 39.3846V23.5769H151.355Z" fill="#000"/>
<path d="M56.3535 16.3461H49.4375V0.615349H55.9735C59.9635 0.615349 62.1675 2.26919 62.1675 5.26919C62.1675 6.53842 61.5975 7.49996 60.6475 8.15381C62.0915 8.80765 62.9655 9.76919 62.9655 11.3077C62.9275 13.6153 61.7875 16.3461 56.3535 16.3461ZM49.9315 15.8461H56.3535C60.3815 15.8461 62.4335 14.3461 62.4335 11.3461C62.4335 9.84612 61.4835 8.9615 59.9635 8.4615L59.3555 8.26919L59.9255 7.99996C60.9895 7.49996 61.6355 6.61535 61.6355 5.30766C61.6355 2.57689 59.6595 1.15381 55.9355 1.15381H49.8935V15.8461H49.9315Z" fill="#000"/>
<path d="M42.9777 16.3846H29.6777V0.615349H42.9777V1.11535H30.1717V15.8846H42.9777V16.3846Z" fill="#000"/>
<path d="M42.9774 7.96151H29.9434V8.46151H42.9774V7.96151Z" fill="#000"/>
<path d="M22.3816 0.615349V15.2692L12.7676 0.769196C12.6916 0.692272 12.5776 0.615348 12.5016 0.65381C12.3876 0.692271 12.3116 0.769197 12.3116 0.884581V15.3846L1.29159 0.65381H0.683594L12.3496 16.3077C12.4256 16.3846 12.5396 16.423 12.6156 16.3846C12.7296 16.3461 12.7676 16.2692 12.7676 16.1538V1.76919L22.3816 16.2692C22.4196 16.3461 22.4956 16.3846 22.5716 16.3846C22.6096 16.3846 22.6096 16.3846 22.6476 16.3846C22.7616 16.3461 22.8376 16.2692 22.8376 16.1538V0.615349H22.3816Z" fill="#000"/>
<path d="M60.0391 7.96151H49.7031V8.46151H60.0391V7.96151Z" fill="#000"/>
</svg>
