<svg width="1070" height="719" viewBox="0 0 1070 719" fill="none" xmlns="http://www.w3.org/2000/svg">
<g opacity="0.35" clip-path="url(#clip0)">
<path opacity="0.3" d="M2.08442 851.429L268.253 58.5252" stroke="white" stroke-width="1.06204"/>
<path opacity="0.3" d="M535.676 851.924L268.142 58.5792" stroke="white" stroke-width="1.06204"/>
<path opacity="0.3" d="M268.273 58.7002L268.273 851.675" stroke="white" stroke-width="1.06204"/>
<path opacity="0.3" d="M535.066 59.8592V853.083" stroke="white" stroke-width="1.06204"/>
<path opacity="0.3" d="M800.457 60.0299V851.675" stroke="white" stroke-width="1.06204"/>
<path opacity="0.3" d="M801.09 59.9917L1070.73 851.425" stroke="white" stroke-width="1.06204"/>
<path opacity="0.3" d="M799.598 59.915L537.146 851.92" stroke="white" stroke-width="1.06204"/>
<path opacity="0.3" d="M535.069 58.585L1070.64 851.243" stroke="white" stroke-width="1.06204"/>
<path opacity="0.3" d="M535.034 58.585L0.644468 852.109" stroke="white" stroke-width="1.06204"/>
<line opacity="0.3" x1="68.1091" y1="654.571" x2="68.1091" y2="851.675" stroke="white" stroke-width="1.06204"/>
<line opacity="0.3" x1="135.691" y1="454.651" x2="135.691" y2="851.675" stroke="white" stroke-width="1.06204"/>
<path opacity="0.3" d="M935.613 454.378V851.675" stroke="white" stroke-width="1.06204"/>
<line opacity="0.3" x1="712.926" y1="323.717" x2="712.926" y2="851.675" stroke="white" stroke-width="1.06204"/>
<line opacity="0.3" x1="356.199" y1="323.186" x2="713.803" y2="323.186" stroke="white" stroke-width="1.06204"/>
<line opacity="0.3" x1="135.16" y1="455.38" x2="934.841" y2="455.38" stroke="white" stroke-width="1.06204"/>
<line opacity="0.3" x1="356.73" y1="323.717" x2="356.73" y2="851.675" stroke="white" stroke-width="1.06204"/>
</g>
<defs>
<clipPath id="clip0">
<rect width="1070" height="719" fill="white" transform="translate(0.00390625)"/>
</clipPath>
</defs>
</svg>
